<svg width="136" height="136" viewBox="0 0 136 136" fill="none" xmlns="http://www.w3.org/2000/svg">
<g clip-path="url(#clip0_1_53)" filter="url(#filter0_d_1_53)">
<g filter="url(#filter1_d_1_53)">
<path d="M16.8151 91.1118C12.8151 84.1836 10.4151 77.2266 9.61495 70.2407C8.88312 63.2732 9.75302 56.6799 12.2247 50.4609C14.7646 44.2602 18.9206 38.8585 24.6925 34.2559L38.0705 51.1272C33.4512 55.5263 30.8659 60.5984 30.3147 66.3438C29.7635 72.0891 30.9879 77.5598 33.9879 82.756C35.6629 85.6571 37.7426 88.2092 40.2269 90.4122C42.7112 92.6152 45.3411 94.0702 48.1164 94.7773C50.9168 95.5276 53.616 95.1528 56.2141 93.6528C57.1667 93.1028 57.9885 92.4262 58.6796 91.6231C59.4389 90.8383 60.0208 89.8962 60.4252 88.7966C60.8296 87.6971 61.0282 86.3411 61.021 84.7287C61.0389 83.1596 60.8042 81.3032 60.3172 79.1595L53.4369 50.7425C52.9065 48.6238 52.4176 46.0771 51.9702 43.1022C51.5479 40.1706 51.5743 37.0665 52.0497 33.7899C52.525 30.5132 53.7758 27.2796 55.802 24.089C57.8965 20.9168 61.1737 18.0432 65.6338 15.4682C71.9125 11.8432 78.0428 10.4112 84.0247 11.1722C90.0066 11.9332 95.5402 14.3675 100.625 18.4753C105.71 22.583 110.081 27.8537 113.738 34.2873C117.376 40.7892 119.597 47.1858 120.401 53.477C121.204 59.7683 120.558 65.7993 118.462 71.5701C116.41 77.3159 112.899 82.6341 107.928 87.5246L93.6558 70.3037C96.2869 67.8609 98.1042 65.1085 99.1076 62.0466C100.111 58.9846 100.404 55.8421 99.9866 52.619C99.5941 49.4393 98.6287 46.4171 97.0903 43.5525C95.5769 40.7312 93.6747 38.3365 91.3837 36.3683C89.161 34.4184 86.7985 33.1266 84.2964 32.4927C81.8192 31.9022 79.4765 32.2444 77.2681 33.5194C75.2329 34.6944 73.9283 36.2848 73.3543 38.2905C72.8236 40.2713 72.7185 42.4393 73.0391 44.7945C73.3596 47.1498 73.8351 49.4733 74.4655 51.7652L79.4238 70.5532C80.1743 73.353 80.8582 76.5377 81.4757 80.1072C82.1365 83.6517 82.2892 87.3163 81.934 91.101C81.647 94.9039 80.4664 98.559 78.392 102.066C76.3426 105.616 72.958 108.754 68.2381 111.479C63.2152 114.379 58.2076 115.856 53.2154 115.909C48.2915 115.98 43.5704 114.953 39.0523 112.828C34.5774 110.677 30.4337 107.7 26.6213 103.897C22.8339 100.137 19.5651 95.875 16.8151 91.1118Z" fill="#161616"/>
<path d="M9.61495 70.2407L8.62037 70.3452L8.62144 70.3545L9.61495 70.2407ZM12.2247 50.4609L11.2992 50.0818L11.2954 50.0915L12.2247 50.4609ZM24.6925 34.2559L25.4761 33.6346L24.8531 32.8489L24.0691 33.474L24.6925 34.2559ZM38.0705 51.1272L38.7601 51.8514L39.4215 51.2215L38.8541 50.5059L38.0705 51.1272ZM30.3147 66.3438L31.3101 66.4393L31.3101 66.4393L30.3147 66.3438ZM40.2269 90.4122L40.8904 89.664L40.8904 89.664L40.2269 90.4122ZM48.1164 94.7773L48.3753 93.8113L48.3633 93.8082L48.1164 94.7773ZM58.6796 91.6231L57.9609 90.9278L57.9406 90.9488L57.9215 90.9709L58.6796 91.6231ZM60.4252 88.7966L61.3637 89.1418L61.3637 89.1418L60.4252 88.7966ZM61.021 84.7287L60.0211 84.7173L60.021 84.7252L60.0211 84.7332L61.021 84.7287ZM60.3172 79.1595L61.2924 78.9379L61.2891 78.9242L60.3172 79.1595ZM53.4369 50.7425L54.4088 50.5072L54.4069 50.4997L53.4369 50.7425ZM51.9702 43.1022L50.9804 43.2448L50.9813 43.2509L51.9702 43.1022ZM52.0497 33.7899L53.0393 33.9334L53.0393 33.9334L52.0497 33.7899ZM55.802 24.089L54.9675 23.5381L54.9626 23.5455L54.9578 23.553L55.802 24.089ZM84.0247 11.1722L83.8985 12.1642L83.8985 12.1642L84.0247 11.1722ZM100.625 18.4753L99.9969 19.2532L99.9969 19.2532L100.625 18.4753ZM113.738 34.2873L114.611 33.799L114.607 33.7932L113.738 34.2873ZM120.401 53.477L121.392 53.3504L121.392 53.3504L120.401 53.477ZM118.462 71.5701L117.522 71.2288L117.521 71.2338L118.462 71.5701ZM107.928 87.5246L107.158 88.1627L107.853 89.0012L108.63 88.2374L107.928 87.5246ZM93.6558 70.3037L92.9754 69.5709L92.2827 70.2141L92.8859 70.9419L93.6558 70.3037ZM99.1076 62.0466L98.1574 61.7352L98.1574 61.7352L99.1076 62.0466ZM99.9866 52.619L98.9941 52.7415L98.9949 52.7475L99.9866 52.619ZM97.0903 43.5525L96.2091 44.0252L96.2093 44.0256L97.0903 43.5525ZM91.3837 36.3683L90.7242 37.1201L90.732 37.1268L91.3837 36.3683ZM84.2964 32.4927L84.542 31.5233L84.5283 31.52L84.2964 32.4927ZM73.3543 38.2905L72.3929 38.0154L72.3906 38.0235L72.3884 38.0317L73.3543 38.2905ZM73.0391 44.7945L74.0299 44.6597L74.0299 44.6597L73.0391 44.7945ZM74.4655 51.7652L75.4325 51.51L75.4297 51.5L74.4655 51.7652ZM79.4238 70.5532L78.4569 70.8083L78.4579 70.8121L79.4238 70.5532ZM81.4757 80.1072L80.4903 80.2777L80.4926 80.2905L81.4757 80.1072ZM81.934 91.101L80.9384 91.0075L80.9375 91.0166L80.9368 91.0257L81.934 91.101ZM78.392 102.066L77.5312 101.557L77.5259 101.566L78.392 102.066ZM53.2154 115.909L53.2047 114.909L53.2009 114.909L53.2154 115.909ZM39.0523 112.828L38.6191 113.729L38.6265 113.732L39.0523 112.828ZM26.6213 103.897L27.3276 103.189L27.3258 103.187L26.6213 103.897ZM17.6812 90.6118C13.7403 83.786 11.391 76.9592 10.6085 70.1269L8.62144 70.3545C9.43917 77.494 11.89 84.5813 15.9491 91.6118L17.6812 90.6118ZM10.6095 70.1363C9.89373 63.3218 10.7449 56.8918 13.154 50.8302L11.2954 50.0915C8.76115 56.468 7.87251 63.2245 8.62042 70.3452L10.6095 70.1363ZM13.15 50.8399C15.6189 44.8127 19.6635 39.5451 25.316 35.0377L24.0691 33.474C18.1776 38.1719 13.9103 43.7076 11.2993 50.0818L13.15 50.8399ZM23.909 34.8772L37.287 51.7485L38.8541 50.5059L25.4761 33.6346L23.909 34.8772ZM37.3809 50.4031C32.607 54.9493 29.8959 60.2377 29.3193 66.2483L31.3101 66.4393C31.8359 60.9592 34.2953 56.1032 38.7601 51.8514L37.3809 50.4031ZM29.3193 66.2483C28.7474 72.2093 30.0222 77.8872 33.1219 83.256L34.854 82.256C31.9536 77.2324 30.7796 71.9689 31.3101 66.4393L29.3193 66.2483ZM33.1219 83.256C34.8502 86.2494 36.998 88.8855 39.5634 91.1604L40.8904 89.664C38.4872 87.533 36.4757 85.0649 34.854 82.256L33.1219 83.256ZM39.5634 91.1604C42.148 93.4523 44.9168 94.9941 47.8696 95.7463L48.3633 93.8082C45.7654 93.1464 43.2745 91.7781 40.8904 89.664L39.5634 91.1604ZM47.8576 95.7432C50.9239 96.5648 53.8952 96.1463 56.7141 94.5188L55.7141 92.7868C53.3368 94.1593 50.9096 94.4904 48.3753 93.8113L47.8576 95.7432ZM56.7141 94.5188C57.7604 93.9147 58.6704 93.167 59.4376 92.2753L57.9215 90.9709C57.3067 91.6855 56.5731 92.2908 55.7141 92.7868L56.7141 94.5188ZM59.3982 92.3185C60.2613 91.4264 60.9147 90.3625 61.3637 89.1418L59.4867 88.4514C59.1268 89.4299 58.6164 90.2502 57.9609 90.9278L59.3982 92.3185ZM61.3637 89.1418C61.8216 87.8969 62.0286 86.4142 62.021 84.7242L60.0211 84.7332C60.0279 86.2681 59.8376 87.4973 59.4867 88.4514L61.3637 89.1418ZM62.021 84.7401C62.04 83.0683 61.7904 81.1301 61.2923 78.9379L59.342 79.3811C59.8181 81.4763 60.0378 83.2508 60.0211 84.7173L62.021 84.7401ZM61.2891 78.9242L54.4088 50.5072L52.4649 50.9778L59.3452 79.3948L61.2891 78.9242ZM54.4069 50.4997C53.8866 48.4212 53.4034 45.9076 52.9591 42.9535L50.9813 43.2509C51.4318 46.2466 51.9264 48.8265 52.4668 50.9853L54.4069 50.4997ZM52.96 42.9596C52.5528 40.1334 52.5762 37.1262 53.0393 33.9334L51.0601 33.6463C50.5725 37.0068 50.5429 40.2079 50.9804 43.2448L52.96 42.9596ZM53.0393 33.9334C53.4918 30.8149 54.6849 27.7134 56.6462 24.6251L54.9578 23.553C52.8667 26.8458 51.5583 30.2115 51.0601 33.6463L53.0393 33.9334ZM56.6365 24.64C58.6207 21.6349 61.7628 18.8578 66.1338 16.3342L65.1338 14.6022C60.5847 17.2286 57.1723 20.1987 54.9675 23.5381L56.6365 24.64ZM66.1338 16.3342C72.2626 12.7958 78.1747 11.436 83.8985 12.1642L84.1509 10.1802C77.9109 9.38634 71.5624 10.8906 65.1338 14.6022L66.1338 16.3342ZM83.8985 12.1642C89.681 12.8998 95.0435 15.2518 99.9969 19.2532L101.254 17.6974C96.0368 13.4832 90.3322 10.9665 84.1509 10.1802L83.8985 12.1642ZM99.9969 19.2532C104.973 23.2726 109.266 28.4424 112.869 34.7814L114.607 33.7932C110.897 27.265 106.448 21.8935 101.254 17.6974L99.9969 19.2532ZM112.865 34.7756C116.452 41.1849 118.624 47.4597 119.409 53.6037L121.392 53.3504C120.57 46.9119 118.301 40.3935 114.611 33.799L112.865 34.7756ZM119.409 53.6037C120.192 59.7424 119.562 65.6127 117.522 71.2288L119.402 71.9114C121.554 65.9859 122.215 59.7941 121.392 53.3504L119.409 53.6037ZM117.521 71.2338C115.526 76.8185 112.106 82.0118 107.227 86.8118L108.63 88.2374C113.693 83.2563 117.295 77.8133 119.404 71.9064L117.521 71.2338ZM108.698 86.8865L94.4257 69.6656L92.8859 70.9419L107.158 88.1627L108.698 86.8865ZM94.3362 71.0366C97.077 68.4919 98.9958 65.5988 100.058 62.358L98.1574 61.7352C97.2125 64.6183 95.4967 67.23 92.9754 69.5709L94.3362 71.0366ZM100.058 62.358C101.108 59.1531 101.415 55.8602 100.978 52.4906L98.9949 52.7475C99.3934 55.824 99.114 58.8162 98.1574 61.7352L100.058 62.358ZM100.979 52.4965C100.571 49.1921 99.5673 46.0513 97.9713 43.0794L96.2093 44.0256C97.6901 46.7829 98.6171 49.6864 98.9941 52.7415L100.979 52.4965ZM97.9715 43.0798C96.4034 40.1565 94.4253 37.663 92.0353 35.6098L90.732 37.1268C92.9241 39.01 94.7504 41.3059 96.2091 44.0252L97.9715 43.0798ZM92.0431 35.6166C89.719 33.5777 87.2183 32.2013 84.5419 31.5234L84.0508 33.4621C86.3788 34.0518 88.6029 35.2592 90.7242 37.1201L92.0431 35.6166ZM84.5283 31.52C81.8021 30.8701 79.1975 31.2508 76.7681 32.6534L77.7681 34.3855C79.7554 33.2381 81.8363 32.9343 84.0645 33.4655L84.5283 31.52ZM76.7681 32.6534C74.5392 33.9403 73.0475 35.7281 72.3929 38.0154L74.3157 38.5657C74.8092 36.8415 75.9267 35.4486 77.7681 34.3855L76.7681 32.6534ZM72.3884 38.0317C71.8182 40.1595 71.7125 42.4633 72.0482 44.9294L74.0299 44.6597C73.7244 42.4153 73.8289 40.3831 74.3202 38.5494L72.3884 38.0317ZM72.0482 44.9294C72.3748 47.3286 72.8592 49.6957 73.5013 52.0304L75.4297 51.5C74.8111 49.2509 74.3445 46.9709 74.0299 44.6597L72.0482 44.9294ZM73.4986 52.0204L78.4569 70.8083L80.3907 70.298L75.4324 51.51L73.4986 52.0204ZM78.4579 70.8121C79.1989 73.5766 79.8768 76.7309 80.4903 80.2777L82.4611 79.9368C81.8397 76.3445 81.1496 73.1294 80.3897 70.2943L78.4579 70.8121ZM80.4926 80.2905C81.1355 83.7389 81.2854 87.3102 80.9384 91.0075L82.9296 91.1944C83.2931 87.3224 83.1374 83.5645 82.4588 79.9239L80.4926 80.2905ZM80.9368 91.0257C80.6622 94.6651 79.5329 98.1728 77.5313 101.557L79.2527 102.575C81.3998 98.9451 82.6318 95.1427 82.9311 91.1762L80.9368 91.0257ZM77.5259 101.566C75.5886 104.922 72.3544 107.948 67.7381 110.613L68.7381 112.345C73.5615 109.56 77.0966 106.31 79.258 102.566L77.5259 101.566ZM67.7381 110.613C62.8398 113.441 57.999 114.858 53.2047 114.909L53.226 116.909C58.4162 116.853 63.5906 115.317 68.7381 112.345L67.7381 110.613ZM53.2009 114.909C48.4312 114.978 43.8605 113.985 39.478 111.923L38.6265 113.732C43.2803 115.922 48.1517 116.983 53.2299 116.909L53.2009 114.909ZM39.4854 111.926C35.12 109.828 31.0672 106.919 27.3276 103.189L25.915 104.605C29.8003 108.48 34.0347 111.526 38.6191 113.729L39.4854 111.926ZM27.3258 103.187C23.6032 99.4912 20.3882 95.3006 17.6812 90.6118L15.9491 91.6118C18.7421 96.4493 22.0645 100.782 25.9168 104.606L27.3258 103.187Z" fill="black"/>
</g>
<g filter="url(#filter2_d_1_53)">
<path d="M26.4346 103.227C20.7778 97.5699 16.6589 91.4711 14.0779 84.9304C11.5677 78.3896 10.7015 71.7958 11.4793 65.149C12.3278 58.5022 14.9441 52.209 19.3282 46.2693L36.6169 59.1033C33.2935 64.548 32.1091 70.1165 33.0637 75.8087C34.0183 81.5009 36.6169 86.4683 40.8596 90.711C43.2284 93.0798 45.8977 95.0066 48.8676 96.4916C51.8374 97.9765 54.7542 98.7013 57.618 98.6659C60.5172 98.6659 63.0274 97.6052 65.1487 95.4839C65.9265 94.7061 66.5452 93.8399 67.0049 92.8853C67.5352 91.9307 67.8534 90.8701 67.9595 89.7033C68.0655 88.5366 67.9064 87.1754 67.4822 85.6198C67.0932 84.0995 66.3861 82.3671 65.3608 80.4226L51.3601 54.7546C50.2995 52.8454 49.1681 50.5119 47.966 47.7542C46.7993 45.0319 46.0215 42.0267 45.6326 38.7386C45.2436 35.4506 45.6149 32.0034 46.7462 28.3972C47.9483 24.7909 50.3702 21.167 54.0118 17.5254C59.1383 12.3989 64.6891 9.42903 70.6641 8.61586C76.6392 7.80268 82.6142 8.72192 88.5893 11.3736C94.5643 14.0252 100.15 17.985 105.348 23.253C110.545 28.5916 114.346 34.1954 116.75 40.0644C119.154 45.9334 120.091 51.9261 119.561 58.0426C119.066 64.1237 117.05 70.1695 113.515 76.1799L95.2715 63.2399C97.1806 60.1993 98.2236 57.0703 98.4004 53.853C98.5772 50.6357 98.0468 47.5244 96.8094 44.5192C95.6073 41.5494 93.8926 38.88 91.6652 36.5112C89.4732 34.1778 87.016 32.357 84.2936 31.0488C81.642 29.7407 79.0257 29.1043 76.4447 29.1396C73.8991 29.2103 71.7248 30.1473 69.9217 31.9504C68.26 33.6121 67.4114 35.4859 67.3761 37.5719C67.3761 39.6225 67.8357 41.7438 68.7549 43.9358C69.6742 46.1279 70.7348 48.2492 71.9369 50.2998L81.5889 67.1643C83.0385 69.6745 84.5234 72.5737 86.0437 75.8617C87.5993 79.1144 88.6954 82.6146 89.3318 86.3622C90.0389 90.1099 89.8444 93.946 88.7484 97.8704C87.6877 101.83 85.2305 105.737 81.3768 109.591C77.2756 113.692 72.8208 116.414 68.0125 117.758C63.2749 119.101 58.4489 119.331 53.5345 118.447C48.6554 117.528 43.8825 115.725 39.2156 113.038C34.584 110.386 30.3237 107.116 26.4346 103.227Z" fill="#333333"/>
<path d="M14.0779 84.9304L13.1443 85.2887L13.1477 85.2974L14.0779 84.9304ZM11.4793 65.149L10.4873 65.0224L10.4861 65.0328L11.4793 65.149ZM19.3282 46.2693L19.9242 45.4663L19.1191 44.8687L18.5236 45.6754L19.3282 46.2693ZM36.6169 59.1033L37.4705 59.6243L37.9463 58.8447L37.213 58.3003L36.6169 59.1033ZM33.0637 75.8087L34.05 75.6433L34.05 75.6433L33.0637 75.8087ZM48.8676 96.4916L49.3148 95.5971L49.3148 95.5971L48.8676 96.4916ZM57.618 98.6659L57.618 97.6658L57.6057 97.666L57.618 98.6659ZM67.0049 92.8853L66.1307 92.3997L66.1165 92.4252L66.1039 92.4515L67.0049 92.8853ZM67.9595 89.7033L68.9553 89.7939L68.9553 89.7939L67.9595 89.7033ZM67.4822 85.6198L66.5134 85.8676L66.5153 85.8753L66.5174 85.8829L67.4822 85.6198ZM65.3608 80.4226L66.2455 79.9561L66.2387 79.9437L65.3608 80.4226ZM51.3601 54.7546L52.238 54.2757L52.2343 54.2689L51.3601 54.7546ZM47.966 47.7542L47.0468 48.1481L47.0493 48.1538L47.966 47.7542ZM45.6326 38.7386L46.6256 38.6211L46.6256 38.6211L45.6326 38.7386ZM46.7462 28.3972L45.7976 28.0809L45.7948 28.0894L45.7921 28.0978L46.7462 28.3972ZM70.6641 8.61586L70.799 9.60672L70.799 9.60672L70.6641 8.61586ZM88.5893 11.3736L88.1837 12.2876L88.1837 12.2876L88.5893 11.3736ZM105.348 23.253L106.064 22.5554L106.06 22.5507L105.348 23.253ZM116.75 40.0644L117.675 39.6854L117.675 39.6854L116.75 40.0644ZM119.561 58.0426L118.564 57.9562L118.564 57.9615L119.561 58.0426ZM113.515 76.1799L112.936 76.9956L113.825 77.6256L114.377 76.6869L113.515 76.1799ZM95.2715 63.2399L94.4246 62.7081L93.9219 63.5086L94.6929 64.0555L95.2715 63.2399ZM98.4004 53.853L97.4019 53.7981L97.4019 53.7981L98.4004 53.853ZM96.8094 44.5192L95.8824 44.8944L95.8847 44.9L96.8094 44.5192ZM91.6652 36.5112L90.9364 37.1959L90.9367 37.1962L91.6652 36.5112ZM84.2936 31.0488L83.8512 31.9457L83.8605 31.9502L84.2936 31.0488ZM76.4447 29.1396L76.431 28.1396L76.417 28.14L76.4447 29.1396ZM67.3761 37.5719L66.3762 37.5549L66.3761 37.5634L66.3761 37.5719L67.3761 37.5719ZM68.7549 43.9358L69.6771 43.5491L69.6771 43.5491L68.7549 43.9358ZM71.9369 50.2998L72.8049 49.803L72.7996 49.7941L71.9369 50.2998ZM81.5889 67.1643L80.721 67.661L80.723 67.6644L81.5889 67.1643ZM86.0437 75.8617L85.136 76.2814L85.1416 76.2932L86.0437 75.8617ZM89.3318 86.3622L88.3459 86.5297L88.3474 86.5387L88.3491 86.5477L89.3318 86.3622ZM88.7484 97.8704L87.7852 97.6014L87.7824 97.6117L88.7484 97.8704ZM68.0125 117.758L67.7434 116.795L67.7397 116.796L68.0125 117.758ZM53.5345 118.447L53.3493 119.43L53.3575 119.431L53.5345 118.447ZM39.2156 113.038L39.7145 112.171L39.7124 112.17L39.2156 113.038ZM27.1417 102.52C21.5684 96.9464 17.5323 90.9602 15.0081 84.5633L13.1477 85.2974C15.7854 91.982 19.9871 98.1934 25.7275 103.934L27.1417 102.52ZM15.0115 84.5721C12.5564 78.175 11.7144 71.7438 12.4725 65.2653L10.4861 65.0328C9.68856 71.8479 10.5789 78.6042 13.1443 85.2887L15.0115 84.5721ZM12.4712 65.2757C13.296 58.8148 15.8394 52.6799 20.1328 46.8631L18.5236 45.6754C14.0488 51.7381 11.3596 58.1897 10.4873 65.0224L12.4712 65.2757ZM18.7321 47.0722L36.0209 59.9062L37.213 58.3003L19.9242 45.4663L18.7321 47.0722ZM35.7634 58.5823C32.3288 64.2092 31.0788 70.019 32.0775 75.9741L34.05 75.6433C33.1394 70.2139 34.2583 64.8868 37.4705 59.6243L35.7634 58.5823ZM32.0775 75.9741C33.0679 81.88 35.7689 87.0345 40.1525 91.4181L41.5667 90.0038C37.465 85.9021 34.9687 81.1218 34.05 75.6433L32.0775 75.9741ZM40.1525 91.4181C42.5966 93.8622 45.3535 95.8526 48.4204 97.386L49.3148 95.5971C46.4419 94.1607 43.8602 92.2973 41.5667 90.0038L40.1525 91.4181ZM48.4204 97.386C51.51 98.9308 54.5835 99.7034 57.6304 99.6658L57.6057 97.666C54.9249 97.6991 52.1648 97.0221 49.3148 95.5971L48.4204 97.386ZM57.618 99.6659C60.7925 99.6659 63.5542 98.4926 65.8558 96.191L64.4416 94.7768C62.5005 96.7179 60.2418 97.6659 57.618 97.6659V99.6659ZM65.8558 96.191C66.7101 95.3368 67.3956 94.3789 67.9059 93.3191L66.1039 92.4515C65.6949 93.3009 65.1429 94.0755 64.4416 94.7768L65.8558 96.191ZM67.879 93.371C68.4818 92.2859 68.8376 91.0891 68.9553 89.7939L66.9636 89.6128C66.8692 90.651 66.5885 91.5755 66.1307 92.3997L67.879 93.371ZM68.9553 89.7939C69.0754 88.4729 68.8916 86.9871 68.4469 85.3567L66.5174 85.8829C66.9213 87.3637 67.0556 88.6003 66.9636 89.6128L68.9553 89.7939ZM68.451 85.372C68.0366 83.7523 67.2939 81.9447 66.2454 79.9561L64.4763 80.889C65.4784 82.7895 66.1499 84.4467 66.5134 85.8676L68.451 85.372ZM66.2387 79.9437L52.238 54.2757L50.4822 55.2334L64.4829 80.9014L66.2387 79.9437ZM52.2343 54.2689C51.1937 52.3959 50.0764 50.0931 48.8827 47.3546L47.0493 48.1538C48.2598 50.9308 49.4052 53.2948 50.486 55.2402L52.2343 54.2689ZM48.8852 47.3603C47.7603 44.7358 47.0046 41.825 46.6256 38.6211L44.6395 38.8561C45.0383 42.2283 45.8382 45.328 47.0469 48.1481L48.8852 47.3603ZM46.6256 38.6211C46.2555 35.4917 46.6053 32.1871 47.7004 28.6965L45.7921 28.0978C44.6245 31.8197 44.2318 35.4094 44.6395 38.8561L46.6256 38.6211ZM47.6949 28.7134C48.8337 25.2971 51.15 21.8014 54.7189 18.2325L53.3047 16.8183C49.5903 20.5326 47.063 24.2847 45.7976 28.0809L47.6949 28.7134ZM54.7189 18.2325C59.723 13.2284 65.0817 10.3848 70.799 9.60672L70.5293 7.62499C64.2964 8.47325 58.5536 11.5694 53.3047 16.8183L54.7189 18.2325ZM70.799 9.60672C76.5748 8.82066 82.3634 9.70464 88.1837 12.2876L88.9949 10.4595C82.8651 7.7392 76.7035 6.78471 70.5293 7.62499L70.799 9.60672ZM88.1837 12.2876C94.0302 14.8822 99.515 18.7648 104.636 23.9553L106.06 22.5507C100.786 17.2053 95.0985 13.1682 88.9949 10.4595L88.1837 12.2876ZM104.631 23.9505C109.754 29.2131 113.477 34.7119 115.824 40.4435L117.675 39.6854C115.215 33.679 111.336 27.9701 106.064 22.5554L104.631 23.9505ZM115.824 40.4435C118.17 46.1702 119.08 52.0037 118.564 57.9562L120.557 58.129C121.101 51.8486 120.138 45.6966 117.675 39.6854L115.824 40.4435ZM118.564 57.9615C118.083 63.8722 116.123 69.7738 112.653 75.6729L114.377 76.6869C117.978 70.5652 120.048 64.3753 120.557 58.1237L118.564 57.9615ZM114.093 75.3643L95.85 62.4242L94.6929 64.0555L112.936 76.9956L114.093 75.3643ZM96.1183 63.7716C98.1072 60.6042 99.2118 57.3131 99.3989 53.9079L97.4019 53.7981C97.2355 56.8276 96.2541 59.7944 94.4246 62.7081L96.1183 63.7716ZM99.3989 53.9079C99.5839 50.5403 99.0278 47.2803 97.7341 44.1385L95.8847 44.9C97.0659 47.7685 97.5704 50.731 97.4019 53.7981L99.3989 53.9079ZM97.7364 44.144C96.4872 41.0578 94.7046 38.2837 92.3937 35.8262L90.9367 37.1962C93.0806 39.4763 94.7275 42.0409 95.8825 44.8944L97.7364 44.144ZM92.3941 35.8265C90.1228 33.4087 87.5667 31.5121 84.7267 30.1475L83.8605 31.9502C86.4652 33.2018 88.8236 34.9468 90.9364 37.1959L92.3941 35.8265ZM84.736 30.152C81.9634 28.7842 79.1916 28.1019 76.431 28.1397L76.4584 30.1395C78.8597 30.1066 81.3206 30.6972 83.8512 31.9456L84.736 30.152ZM76.417 28.14C73.6155 28.2178 71.1982 29.2597 69.2146 31.2433L70.6288 32.6575C72.2514 31.0348 74.1828 30.2028 76.4725 30.1392L76.417 28.14ZM69.2146 31.2433C67.3946 33.0632 66.4165 35.1761 66.3762 37.5549L68.3759 37.5888C68.4063 35.7957 69.1253 34.161 70.6288 32.6575L69.2146 31.2433ZM66.3761 37.5719C66.3761 39.7747 66.8702 42.0274 67.8328 44.3226L69.6771 43.5491C68.8012 41.4603 68.3761 39.4703 68.3761 37.5719L66.3761 37.5719ZM67.8328 44.3226C68.7692 46.5555 69.8497 48.7166 71.0742 50.8055L72.7996 49.7941C71.62 47.7818 70.5792 45.7002 69.6771 43.5491L67.8328 44.3226ZM71.069 50.7965L80.721 67.661L82.4568 66.6676L72.8048 49.8031L71.069 50.7965ZM80.723 67.6644C82.1542 70.143 83.6255 73.0143 85.136 76.2814L86.9514 75.442C85.4214 72.133 83.9228 69.2061 82.4549 66.6642L80.723 67.6644ZM85.1416 76.2932C86.6551 79.4577 87.7242 82.8685 88.3459 86.5297L90.3176 86.1948C89.6666 82.3607 88.5436 78.7711 86.9458 75.4303L85.1416 76.2932ZM88.3491 86.5477C89.0258 90.1342 88.8428 93.8146 87.7852 97.6014L89.7115 98.1394C90.846 94.0774 91.0519 90.0857 90.3144 86.1768L88.3491 86.5477ZM87.7824 97.6117C86.7798 101.355 84.4389 105.114 80.6697 108.884L82.0839 110.298C86.0222 106.36 88.5957 102.305 89.7143 98.1291L87.7824 97.6117ZM80.6697 108.884C76.6702 112.883 72.3611 115.504 67.7434 116.795L68.2816 118.721C73.2806 117.324 77.881 114.501 82.0839 110.298L80.6697 108.884ZM67.7397 116.796C63.1505 118.097 58.4784 118.32 53.7115 117.463L53.3575 119.431C58.4194 120.342 63.3993 120.105 68.2853 118.72L67.7397 116.796ZM53.7196 117.465C48.9599 116.568 44.2923 114.807 39.7145 112.171L38.7166 113.904C43.4726 116.643 48.3509 118.488 53.3493 119.43L53.7196 117.465ZM39.7124 112.17C35.1601 109.564 30.9701 106.348 27.1417 102.52L25.7275 103.934C29.6773 107.884 34.0079 111.209 38.7187 113.906L39.7124 112.17Z" fill="black"/>
</g>
<g filter="url(#filter3_d_1_53)">
<path d="M38.8618 112.439C31.9336 108.439 26.3766 103.614 22.1907 97.9644C18.0732 92.2962 15.5299 86.1513 14.5609 79.5297C13.6602 72.8897 14.5585 66.1338 17.2559 59.2618L37.2772 67.1838C35.4763 73.3031 35.7734 78.9884 38.1688 84.2396C40.5641 89.4908 44.3598 93.6164 49.556 96.6164C52.4572 98.2914 55.5342 99.4617 58.7872 100.127C62.0402 100.793 65.0452 100.738 67.8023 99.9629C70.6026 99.2125 72.7528 97.5383 74.2528 94.9402C74.8028 93.9876 75.1762 92.9908 75.3731 91.9498C75.6383 90.8904 75.6712 89.7835 75.4716 88.6291C75.2721 87.4747 74.7661 86.2011 73.9537 84.8083C73.1846 83.4404 72.0532 81.9501 70.5595 80.3372L50.3925 59.1674C48.8739 57.5978 47.1771 55.6367 45.3022 53.2841C43.4707 50.9565 41.9415 48.255 40.7149 45.1796C39.4882 42.1043 38.9546 38.6785 39.1141 34.9023C39.3418 31.1078 40.7432 26.9806 43.3182 22.5205C46.9432 16.2418 51.5362 11.9365 57.0972 9.60462C62.6582 7.2727 68.6676 6.61415 75.1253 7.629C81.5831 8.64384 88.0037 11.0229 94.3873 14.7662C100.789 18.5778 105.911 23.007 109.752 28.0538C113.593 33.1005 116.049 38.6466 117.12 44.6919C118.216 50.6939 117.834 57.0552 115.975 63.7759L95.0038 55.9985C96.0609 52.5674 96.2586 49.2751 95.5966 46.1217C94.9346 42.9682 93.6171 40.1002 91.644 37.5177C89.7143 34.9602 87.3671 32.8256 84.6025 31.114C81.8812 29.4274 79.0365 28.3046 76.0683 27.7456C73.1685 27.1684 70.4766 27.2308 67.9928 27.9329C65.5522 28.6601 63.6944 30.1278 62.4194 32.3362C61.2444 34.3714 60.9098 36.401 61.4155 38.425C61.9463 40.4057 62.9393 42.3358 64.3945 44.2152C65.8498 46.0947 67.4233 47.8692 69.1152 49.5388L82.8032 63.3305C84.8531 65.38 87.0377 67.7961 89.3572 70.5786C91.7017 73.3178 93.6663 76.4151 95.251 79.8703C96.9039 83.3073 97.709 87.063 97.666 91.1373C97.6664 95.2367 96.304 99.6464 93.579 104.366C90.679 109.389 87.0807 113.172 82.7839 115.714C78.5554 118.238 73.9534 119.709 68.9777 120.127C64.0269 120.502 58.9499 119.996 53.7466 118.608C48.5866 117.245 43.625 115.189 38.8618 112.439Z" fill="#4F4F4F"/>
<path d="M22.1907 97.9644L21.3816 98.5521L21.3872 98.5597L22.1907 97.9644ZM14.5609 79.5297L13.5699 79.6641L13.5714 79.6744L14.5609 79.5297ZM17.2559 59.2618L17.6238 58.3319L16.6914 57.963L16.325 58.8964L17.2559 59.2618ZM37.2772 67.1838L38.2365 67.4661L38.4944 66.59L37.6452 66.2539L37.2772 67.1838ZM38.1688 84.2396L39.0786 83.8246L39.0786 83.8246L38.1688 84.2396ZM58.7872 100.127L58.9877 99.1477L58.9877 99.1477L58.7872 100.127ZM67.8023 99.9629L67.5434 98.9969L67.5315 99.0002L67.8023 99.9629ZM75.3731 91.9498L74.4031 91.7069L74.396 91.7352L74.3906 91.7639L75.3731 91.9498ZM75.4716 88.6291L76.457 88.4588L76.457 88.4588L75.4716 88.6291ZM73.9537 84.8083L73.0821 85.2984L73.0859 85.3053L73.0899 85.3121L73.9537 84.8083ZM70.5595 80.3372L71.2933 79.6576L71.2836 79.6474L70.5595 80.3372ZM50.3925 59.1674L51.1166 58.4777L51.1112 58.4721L50.3925 59.1674ZM45.3022 53.2841L44.5163 53.9025L44.5202 53.9073L45.3022 53.2841ZM40.7149 45.1796L41.6437 44.8091L41.6437 44.8091L40.7149 45.1796ZM39.1141 34.9023L38.1159 34.8424L38.1153 34.8512L38.1149 34.8601L39.1141 34.9023ZM57.0972 9.60462L57.4839 10.5268L57.4839 10.5268L57.0972 9.60462ZM75.1253 7.629L74.9701 8.61687L74.9701 8.61687L75.1253 7.629ZM94.3873 14.7662L94.8989 13.907L94.8932 13.9036L94.3873 14.7662ZM109.752 28.0538L110.548 27.4481L110.548 27.4481L109.752 28.0538ZM117.12 44.6919L116.135 44.8663L116.136 44.8715L117.12 44.6919ZM115.975 63.7759L115.627 64.7135L116.648 65.0922L116.938 64.0426L115.975 63.7759ZM95.0038 55.9985L94.0481 55.7041L93.7697 56.6074L94.656 56.9361L95.0038 55.9985ZM95.5966 46.1217L94.6179 46.3271L94.6179 46.3271L95.5966 46.1217ZM91.644 37.5177L90.8458 38.12L90.8494 38.1248L91.644 37.5177ZM84.6025 31.114L84.0757 31.964L84.0761 31.9642L84.6025 31.114ZM76.0683 27.7456L75.8731 28.7264L75.8833 28.7284L76.0683 27.7456ZM67.9928 27.9329L67.7207 26.9705L67.7072 26.9746L67.9928 27.9329ZM61.4155 38.425L60.4454 38.6674L60.4474 38.6756L60.4496 38.6838L61.4155 38.425ZM64.3945 44.2152L65.1852 43.603L65.1852 43.603L64.3945 44.2152ZM69.1152 49.5388L69.825 48.8343L69.8176 48.827L69.1152 49.5388ZM82.8032 63.3305L82.0934 64.035L82.0961 64.0377L82.8032 63.3305ZM89.3572 70.5786L88.589 71.219L88.5975 71.2288L89.3572 70.5786ZM95.251 79.8703L94.342 80.2872L94.3458 80.2955L94.3498 80.3038L95.251 79.8703ZM97.666 91.1373L96.666 91.1268L96.666 91.1374L97.666 91.1373ZM82.7839 115.714L82.2747 114.853L82.2714 114.855L82.7839 115.714ZM68.9777 120.127L69.0532 121.124L69.0614 121.124L68.9777 120.127ZM53.7466 118.608L54.0043 117.642L54.0019 117.641L53.7466 118.608ZM39.3618 111.573C32.536 107.632 27.0881 102.895 22.9942 97.3691L21.3872 98.5597C25.6652 104.334 31.3313 109.246 38.3618 113.305L39.3618 111.573ZM22.9998 97.3766C18.9727 91.833 16.4948 85.8388 15.5503 79.3849L13.5714 79.6744C14.565 86.4637 17.1736 92.7594 21.3817 98.5521L22.9998 97.3766ZM15.5518 79.3952C14.6763 72.9411 15.5452 66.3569 18.1867 59.6271L16.325 58.8964C13.5718 65.9106 12.6441 72.8384 13.57 79.6641L15.5518 79.3952ZM16.888 60.1916L36.9093 68.1136L37.6452 66.2539L17.6238 58.3319L16.888 60.1916ZM36.3179 66.9015C34.4567 73.2256 34.753 79.161 37.2589 84.6546L39.0786 83.8246C36.7939 78.8159 36.4958 73.3807 38.2365 67.4661L36.3179 66.9015ZM37.2589 84.6546C39.7442 90.1029 43.6872 94.3828 49.056 97.4824L50.056 95.7504C45.0324 92.85 41.384 88.8786 39.0786 83.8246L37.2589 84.6546ZM49.056 97.4824C52.0494 99.2107 55.2275 100.42 58.5867 101.107L58.9877 99.1477C55.841 98.5038 52.8649 97.3721 50.056 95.7504L49.056 97.4824ZM58.5867 101.107C61.971 101.8 65.1397 101.75 68.073 100.926L67.5315 99.0002C64.9507 99.726 62.1094 99.7865 58.9877 99.1477L58.5867 101.107ZM68.0611 100.929C71.1274 100.107 73.4914 98.2591 75.1188 95.4402L73.3868 94.4402C72.0142 96.8176 70.0778 98.3179 67.5434 98.9969L68.0611 100.929ZM75.1188 95.4402C75.7229 94.394 76.1371 93.2913 76.3557 92.1356L74.3906 91.7639C74.2154 92.6902 73.8827 93.5813 73.3868 94.4402L75.1188 95.4402ZM76.3432 92.1926C76.6446 90.9885 76.6785 89.7404 76.457 88.4588L74.4863 88.7994C74.6638 89.8267 74.632 90.7924 74.4031 91.7069L76.3432 92.1926ZM76.457 88.4588C76.2311 87.1517 75.669 85.7642 74.8175 84.3044L73.0899 85.3121C73.8633 86.638 74.3131 87.7977 74.4863 88.7994L76.457 88.4588ZM74.8254 84.3181C74.0059 82.8609 72.8207 81.3071 71.2932 79.6577L69.8258 81.0166C71.2857 82.5931 72.3632 84.02 73.0821 85.2984L74.8254 84.3181ZM71.2836 79.6474L51.1166 58.4777L49.6685 59.8572L69.8355 81.0269L71.2836 79.6474ZM51.1112 58.4721C49.6213 56.9322 47.946 54.997 46.0843 52.6609L44.5202 53.9073C46.4082 56.2764 48.1264 58.2634 49.6738 59.8628L51.1112 58.4721ZM46.0881 52.6657C44.3223 50.4217 42.839 47.8058 41.6437 44.8091L39.786 45.5501C41.0441 48.7042 42.619 51.4912 44.5164 53.9025L46.0881 52.6657ZM41.6437 44.8091C40.4762 41.8822 39.9588 38.5996 40.1132 34.9445L38.1149 34.8601C37.9504 38.7574 38.5002 42.3264 39.786 45.5501L41.6437 44.8091ZM40.1123 34.9622C40.328 31.3676 41.6607 27.3915 44.1842 23.0205L42.4522 22.0205C39.8257 26.5697 38.3556 30.848 38.1159 34.8424L40.1123 34.9622ZM44.1842 23.0205C47.7227 16.8918 52.1628 12.7581 57.4839 10.5268L56.7105 8.68242C50.9095 11.115 46.1637 15.5919 42.4522 22.0205L44.1842 23.0205ZM57.4839 10.5268C62.8595 8.27264 68.6796 7.62832 74.9701 8.61687L75.2805 6.64112C68.6555 5.59999 62.4569 6.27275 56.7105 8.68242L57.4839 10.5268ZM74.9701 8.61687C81.2889 9.60988 87.5917 11.9406 93.8815 15.6288L94.8932 13.9036C88.4157 10.1053 81.8772 7.67779 75.2805 6.64112L74.9701 8.61687ZM93.8757 15.6254C100.186 19.3828 105.205 23.7308 108.956 28.6594L110.548 27.4481C106.617 22.2832 101.392 17.7729 94.8989 13.907L93.8757 15.6254ZM108.956 28.6594C112.704 33.5838 115.093 38.983 116.135 44.8663L118.105 44.5175C117.005 38.3101 114.482 32.6172 110.548 27.4481L108.956 28.6594ZM116.136 44.8715C117.201 50.7053 116.836 56.9131 115.011 63.5093L116.938 64.0426C118.832 57.1974 119.23 50.6825 118.104 44.5123L116.136 44.8715ZM116.322 62.8383L95.3515 55.0609L94.656 56.9361L115.627 64.7135L116.322 62.8383ZM95.9594 56.293C97.0607 52.7188 97.2759 49.2539 96.5753 45.9162L94.6179 46.3271C95.2412 49.2964 95.0612 52.4161 94.0481 55.7041L95.9594 56.293ZM96.5753 45.9162C95.8824 42.6156 94.5015 39.6106 92.4387 36.9106L90.8494 38.1248C92.7328 40.5899 93.9869 43.3209 94.6179 46.3271L96.5753 45.9162ZM92.4423 36.9154C90.4369 34.2576 87.9971 32.0395 85.1289 30.2638L84.0761 31.9642C86.7371 33.6117 88.9916 35.6627 90.8458 38.12L92.4423 36.9154ZM85.1293 30.264C82.3096 28.5164 79.3498 27.346 76.2534 26.7629L75.8833 28.7284C78.7232 29.2632 81.4528 30.3384 84.0757 31.964L85.1293 30.264ZM76.2636 26.7649C73.2314 26.1612 70.3775 26.2196 67.7207 26.9706L68.2648 28.8952C70.5757 28.242 73.1056 28.1755 75.8731 28.7264L76.2636 26.7649ZM67.7072 26.9746C65.0213 27.7748 62.956 29.4068 61.5534 31.8362L63.2855 32.8362C64.4329 30.8489 66.0831 29.5454 68.2783 28.8913L67.7072 26.9746ZM61.5534 31.8362C60.2665 34.0651 59.8686 36.3592 60.4454 38.6674L62.3857 38.1826C61.951 36.4427 62.2223 34.6776 63.2855 32.8362L61.5534 31.8362ZM60.4496 38.6838C61.0198 40.8116 62.0801 42.8596 63.6039 44.8275L65.1852 43.603C63.7985 41.8121 62.8728 39.9999 62.3815 38.1662L60.4496 38.6838ZM63.6039 44.8275C65.0863 46.742 66.6893 48.5498 68.4128 50.2506L69.8176 48.827C68.1574 47.1886 66.6133 45.4473 65.1852 43.603L63.6039 44.8275ZM68.4054 50.2432L82.0934 64.035L83.513 62.6261L69.825 48.8344L68.4054 50.2432ZM82.0961 64.0377C84.1202 66.0614 86.2844 68.4541 88.5891 71.2189L90.1253 69.9383C87.7911 67.138 85.5859 64.6987 83.5102 62.6234L82.0961 64.0377ZM88.5975 71.2288C90.8785 73.8939 92.7939 76.9117 94.342 80.2872L96.1599 79.4535C94.5387 75.9184 92.525 72.7418 90.1169 69.9284L88.5975 71.2288ZM94.3498 80.3038C95.9317 83.5929 96.7075 87.1953 96.6661 91.1268L98.666 91.1479C98.7104 86.9306 97.8762 83.0217 96.1522 79.4369L94.3498 80.3038ZM96.666 91.1374C96.6663 95.0127 95.3782 99.2499 92.713 103.866L94.4451 104.866C97.2299 100.043 98.6664 95.4608 98.666 91.1373L96.666 91.1374ZM92.713 103.866C89.885 108.765 86.4011 112.412 82.2747 114.853L83.2931 116.575C87.7602 113.932 91.4731 110.014 94.4451 104.866L92.713 103.866ZM82.2714 114.855C78.1754 117.3 73.7203 118.725 68.8939 119.131L69.0614 121.124C74.1865 120.693 78.9355 119.176 83.2964 116.573L82.2714 114.855ZM68.9021 119.13C64.0725 119.496 59.1082 119.003 54.0043 117.642L53.4889 119.574C58.7916 120.988 63.9813 121.508 69.0532 121.124L68.9021 119.13ZM54.0019 117.641C48.9301 116.302 44.0506 114.28 39.3618 111.573L38.3618 113.305C43.1994 116.098 48.243 118.189 53.4913 119.575L54.0019 117.641Z" fill="black"/>
</g>
<g filter="url(#filter4_d_1_53)">
<path d="M53.25 118.121C45.5226 116.051 38.9061 112.828 33.4006 108.454C27.9563 104.045 23.9092 98.7679 21.2594 92.6227C18.6709 86.4421 17.79 79.6838 18.6169 72.3479L40.0064 74.8181C39.8506 81.195 41.6091 86.6097 45.2819 91.062C48.9547 95.5143 53.6889 98.5169 59.4845 100.07C62.7203 100.937 65.9955 101.271 69.3099 101.072C72.6243 100.873 75.5128 100.042 77.9752 98.5798C80.4859 97.1302 82.1295 94.9565 82.906 92.0588C83.1907 90.9962 83.2934 89.9367 83.2141 88.8802C83.1961 87.7883 82.9413 86.7107 82.4498 85.6472C81.9583 84.5838 81.14 83.4845 79.9947 82.3494C78.8978 81.2273 77.4192 80.0805 75.559 78.9092L50.6 63.6804C48.7269 62.5573 46.5803 61.1022 44.1605 59.315C41.7889 57.5407 39.6126 55.327 37.6318 52.6739C35.651 50.0209 34.2489 46.8499 33.4256 43.1611C32.6635 39.437 32.9489 35.0877 34.2818 30.1132C36.1583 23.1102 39.4805 17.7628 44.2484 14.0711C49.0164 10.3793 54.6506 8.18788 61.1509 7.49675C67.6513 6.80562 74.4689 7.44184 81.6039 9.4054C88.7741 11.4302 94.8675 14.3829 99.8841 18.2635C104.901 22.1441 108.708 26.8655 111.307 32.4277C113.919 37.9416 115.197 44.185 115.14 51.1579L92.871 49.0732C93.0041 45.4854 92.3429 42.2542 90.8873 39.3795C89.4317 36.5048 87.4168 34.0755 84.8426 32.0917C82.3166 30.1207 79.4969 28.6664 76.3836 27.7286C73.3185 26.8038 70.2801 26.4556 67.2684 26.6838C64.3179 26.8768 61.7339 27.6338 59.5165 28.9549C57.3473 30.2889 55.9327 32.1875 55.2727 34.6506C54.6645 36.9205 54.8665 38.9676 55.8789 40.7918C56.9042 42.5676 58.3629 44.1749 60.255 45.6137C62.1471 47.0524 64.1263 48.3592 66.1927 49.534L82.9838 59.3131C85.4943 60.7623 88.2298 62.5305 91.1905 64.6179C94.164 66.657 96.8633 69.1402 99.2883 72.0676C101.774 74.9596 103.524 78.379 104.537 82.3257C105.598 86.2853 105.424 90.8972 104.013 96.1615C102.512 101.764 100.015 106.349 96.523 109.917C93.0919 113.449 89.0273 116.061 84.3294 117.753C79.6444 119.396 74.6093 120.221 69.2242 120.227C63.8873 120.247 58.5626 119.545 53.25 118.121Z" fill="#828282"/>
<path d="M33.4006 108.454L32.7712 109.232L32.7785 109.237L33.4006 108.454ZM21.2594 92.6227L20.337 93.009L20.3412 93.0186L21.2594 92.6227ZM18.6169 72.3479L18.7316 71.3545L17.7355 71.2395L17.6232 72.2359L18.6169 72.3479ZM40.0064 74.8181L41.0061 74.8425L41.0284 73.9294L40.1211 73.8247L40.0064 74.8181ZM45.2819 91.062L46.0533 90.4256L46.0533 90.4256L45.2819 91.062ZM69.3099 101.072L69.25 100.074L69.25 100.074L69.3099 101.072ZM77.9752 98.5798L77.4751 97.7137L77.4645 97.72L77.9752 98.5798ZM83.2141 88.8802L82.2143 88.8967L82.2147 88.9259L82.2169 88.955L83.2141 88.8802ZM82.4498 85.6472L83.3576 85.2277L83.3576 85.2277L82.4498 85.6472ZM79.9947 82.3494L79.2796 83.0485L79.2852 83.0541L79.2908 83.0597L79.9947 82.3494ZM75.559 78.9092L76.0919 78.0629L76.0798 78.0555L75.559 78.9092ZM50.6 63.6804L51.1209 62.8267L51.1142 62.8227L50.6 63.6804ZM44.1605 59.315L43.5614 60.1157L43.5664 60.1194L44.1605 59.315ZM37.6318 52.6739L38.4331 52.0757L38.4331 52.0757L37.6318 52.6739ZM33.4256 43.1611L32.4459 43.3616L32.4477 43.3703L32.4496 43.379L33.4256 43.1611ZM44.2484 14.0711L44.8606 14.8618L44.8606 14.8618L44.2484 14.0711ZM61.1509 7.49675L61.2567 8.49115L61.2567 8.49115L61.1509 7.49675ZM81.6039 9.4054L81.8756 8.44301L81.8692 8.44124L81.6039 9.4054ZM99.8841 18.2635L100.496 17.4725L100.496 17.4725L99.8841 18.2635ZM111.307 32.4277L110.401 32.851L110.404 32.8558L111.307 32.4277ZM115.14 51.1579L115.047 52.1536L116.131 52.2551L116.14 51.1661L115.14 51.1579ZM92.871 49.0732L91.8717 49.0361L91.8366 49.9807L92.7778 50.0688L92.871 49.0732ZM90.8873 39.3795L89.9952 39.8312L89.9952 39.8312L90.8873 39.3795ZM84.8426 32.0917L84.2274 32.8801L84.2322 32.8837L84.8426 32.0917ZM76.3836 27.7286L76.0947 28.686L76.0952 28.6861L76.3836 27.7286ZM67.2684 26.6838L67.3336 27.6818L67.344 27.681L67.2684 26.6838ZM59.5165 28.9549L59.0046 28.0957L58.9926 28.1031L59.5165 28.9549ZM55.8789 40.7918L55.0045 41.277L55.0086 41.2844L55.0129 41.2918L55.8789 40.7918ZM60.255 45.6137L60.8603 44.8177L60.8603 44.8177L60.255 45.6137ZM66.1927 49.534L66.696 48.6699L66.6869 48.6647L66.1927 49.534ZM82.9838 59.3131L82.4805 60.1773L82.4839 60.1792L82.9838 59.3131ZM91.1905 64.6179L90.6142 65.4353L90.6249 65.4426L91.1905 64.6179ZM99.2883 72.0676L98.5182 72.7055L98.524 72.7126L98.53 72.7195L99.2883 72.0676ZM104.537 82.3257L103.568 82.5743L103.571 82.5846L104.537 82.3257ZM96.523 109.917L95.8084 109.217L95.8057 109.22L96.523 109.917ZM84.3294 117.753L84.6604 118.696L84.6682 118.694L84.3294 117.753ZM69.2242 120.227L69.223 119.227L69.2205 119.227L69.2242 120.227ZM53.5088 117.155C45.8956 115.115 39.4071 111.949 34.0226 107.672L32.7785 109.237C38.4051 113.708 45.1496 116.986 52.9912 119.087L53.5088 117.155ZM34.0299 107.677C28.7053 103.365 24.7604 98.2164 22.1777 92.2267L20.3412 93.0186C23.0581 99.3194 27.2073 104.725 32.7712 109.232L34.0299 107.677ZM22.1818 92.2364C19.6657 86.2287 18.8009 79.644 19.6106 72.4599L17.6232 72.2359C16.7792 79.7237 17.6761 86.6555 20.3371 93.009L22.1818 92.2364ZM18.5022 73.3413L39.8917 75.8115L40.1211 73.8247L18.7316 71.3545L18.5022 73.3413ZM39.0067 74.7936C38.8457 81.384 40.6681 87.0405 44.5105 91.6983L46.0533 90.4256C42.5501 86.1789 40.8555 81.0061 41.0061 74.8425L39.0067 74.7936ZM44.5105 91.6983C48.3212 96.3178 53.2376 99.4312 59.2257 101.036L59.7433 99.1039C54.1403 97.6025 49.5883 94.7108 46.0533 90.4256L44.5105 91.6983ZM59.2257 101.036C62.5644 101.93 65.9471 102.276 69.3698 102.07L69.25 100.074C66.0438 100.266 62.8763 99.9433 59.7433 99.1039L59.2257 101.036ZM69.3698 102.07C72.8179 101.863 75.866 100.996 78.4858 99.4396L77.4645 97.72C75.1595 99.089 72.4307 99.8828 69.25 100.074L69.3698 102.07ZM78.4752 99.4458C81.2244 97.8586 83.0295 95.4616 83.8719 92.3176L81.94 91.7999C81.2296 94.4515 79.7475 96.4019 77.4752 97.7137L78.4752 99.4458ZM83.8719 92.3176C84.1846 91.1506 84.2993 89.9783 84.2113 88.8054L82.2169 88.955C82.2875 89.8951 82.1967 90.8419 81.94 91.7999L83.8719 92.3176ZM84.214 88.8637C84.1935 87.6226 83.9032 86.4083 83.3576 85.2277L81.5421 86.0668C81.9795 87.0131 82.1987 87.9541 82.2143 88.8967L84.214 88.8637ZM83.3576 85.2277C82.8011 84.0236 81.899 82.8289 80.6987 81.6392L79.2908 83.0597C80.3809 84.1402 81.1156 85.1439 81.5421 86.0668L83.3576 85.2277ZM80.7098 81.6504C79.5412 80.4549 77.9941 79.2608 76.0918 78.0629L75.0261 79.7554C76.8443 80.9002 78.2544 81.9997 79.2796 83.0485L80.7098 81.6504ZM76.0798 78.0555L51.1209 62.8267L50.0792 64.534L75.0381 79.7628L76.0798 78.0555ZM51.1142 62.8227C49.2766 61.7209 47.1575 60.2853 44.7545 58.5106L43.5664 60.1194C46.0032 61.9191 48.1771 63.3937 50.0858 64.538L51.1142 62.8227ZM44.7595 58.5142C42.4731 56.8037 40.3632 54.6608 38.4331 52.0757L36.8305 53.2722C38.862 55.9932 41.1046 58.2777 43.5614 60.1157L44.7595 58.5142ZM38.4331 52.0757C36.5479 49.5506 35.1985 46.5138 34.4016 42.9433L32.4496 43.379C33.2993 47.186 34.7541 50.4911 36.8305 53.2722L38.4331 52.0757ZM34.4053 42.9607C33.6833 39.4327 33.9415 35.2471 35.2478 30.372L33.3159 29.8543C31.9564 34.9282 31.6436 39.4413 32.4459 43.3616L34.4053 42.9607ZM35.2478 30.372C37.0794 23.5362 40.2984 18.3942 44.8606 14.8618L43.6362 13.2804C38.6625 17.1314 35.2371 22.6842 33.3159 29.8543L35.2478 30.372ZM44.8606 14.8618C49.4696 11.2931 54.9246 9.16437 61.2567 8.49115L61.0452 6.50236C54.3765 7.21139 48.5631 9.46555 43.6362 13.2804L44.8606 14.8618ZM61.2567 8.49115C67.6172 7.81488 74.3085 8.43485 81.3385 10.3696L81.8692 8.44124C74.6294 6.44882 67.6854 5.79636 61.0452 6.50236L61.2567 8.49115ZM81.3321 10.3678C88.4002 12.3637 94.3731 15.2647 99.2722 19.0545L100.496 17.4725C95.362 13.5011 89.148 10.4967 81.8756 8.44303L81.3321 10.3678ZM99.2722 19.0545C104.167 22.841 107.872 27.4379 110.401 32.851L112.213 32.0044C109.545 26.2931 105.634 21.4472 100.496 17.4725L99.2722 19.0545ZM110.404 32.8558C112.942 38.2151 114.196 44.3061 114.14 51.1498L116.14 51.1661C116.198 44.0639 114.896 37.668 112.211 31.9996L110.404 32.8558ZM115.233 50.1623L92.9642 48.0775L92.7778 50.0688L115.047 52.1536L115.233 50.1623ZM93.8703 49.1103C94.009 45.3728 93.3201 41.9703 91.7795 38.9277L89.9952 39.8312C91.3657 42.538 91.9993 45.598 91.8717 49.0361L93.8703 49.1103ZM91.7795 38.9277C90.2559 35.9188 88.1443 33.3736 85.453 31.2996L84.2322 32.8837C86.6894 34.7774 88.6075 37.0907 89.9952 39.8312L91.7795 38.9277ZM85.4577 31.3033C82.8328 29.2551 79.902 27.744 76.672 26.7711L76.0952 28.6861C79.0919 29.5888 81.8004 30.9864 84.2274 32.8801L85.4577 31.3033ZM76.6724 26.7713C73.4965 25.813 70.3346 25.4486 67.1928 25.6867L67.344 27.681C70.2255 27.4626 73.1405 27.7946 76.0947 28.686L76.6724 26.7713ZM67.2031 25.686C64.118 25.8877 61.3765 26.6827 59.0046 28.0958L60.0283 29.814C62.0914 28.5849 64.5178 27.8659 67.3336 27.6817L67.2031 25.686ZM58.9926 28.1031C56.6054 29.5712 55.0328 31.6821 54.3068 34.3918L56.2386 34.9094C56.8326 32.6928 58.0892 31.0066 60.0403 29.8067L58.9926 28.1031ZM54.3068 34.3918C53.6406 36.8778 53.85 39.1967 55.0045 41.277L56.7533 40.3065C55.883 38.7384 55.6883 36.9632 56.2386 34.9094L54.3068 34.3918ZM55.0129 41.2918C56.1143 43.1995 57.6686 44.9032 59.6497 46.4097L60.8603 44.8177C59.0573 43.4467 57.6941 41.9358 56.7449 40.2918L55.0129 41.2918ZM59.6497 46.4097C61.5772 47.8753 63.5935 49.2066 65.6984 50.4034L66.6869 48.6647C64.6592 47.5118 62.7171 46.2295 60.8603 44.8177L59.6497 46.4097ZM65.6894 50.3982L82.4805 60.1772L83.4871 58.449L66.6959 48.6699L65.6894 50.3982ZM82.4839 60.1792C84.9627 61.6101 87.6725 63.3611 90.6142 65.4352L91.7667 63.8006C88.7872 61.6999 86.0259 59.9145 83.4837 58.447L82.4839 60.1792ZM90.6249 65.4426C93.5179 67.4265 96.1492 69.8457 98.5182 72.7055L100.058 71.4297C97.5774 68.4347 94.8101 65.8875 91.756 63.7932L90.6249 65.4426ZM98.53 72.7195C100.909 75.4872 102.591 78.766 103.569 82.5743L105.506 82.077C104.457 77.992 102.64 74.4321 100.047 71.4157L98.53 72.7195ZM103.571 82.5846C104.575 86.3277 104.427 90.7539 103.047 95.9027L104.979 96.4204C106.421 91.0405 106.622 86.2429 105.503 82.0668L103.571 82.5846ZM103.047 95.9027C101.583 101.366 99.1623 105.791 95.8084 109.217L97.2376 110.616C100.868 106.907 103.441 102.162 104.979 96.4204L103.047 95.9027ZM95.8057 109.22C92.482 112.641 88.5475 115.171 83.9906 116.812L84.6682 118.694C89.5071 116.951 93.7017 114.256 97.2403 110.613L95.8057 109.22ZM83.9984 116.809C79.428 118.412 74.5053 119.221 69.223 119.227L69.2254 121.227C74.7133 121.221 79.8608 120.38 84.6604 118.696L83.9984 116.809ZM69.2205 119.227C63.975 119.247 58.7384 118.557 53.5088 117.155L52.9912 119.087C58.3867 120.533 63.7996 121.247 69.2278 121.227L69.2205 119.227Z" fill="black"/>
</g>
<g filter="url(#filter5_d_1_53)">
<path d="M68.6185 119.886C60.6185 119.886 53.3935 118.486 46.9435 115.686C40.5435 112.836 35.2685 108.786 31.1185 103.536C27.0185 98.2359 24.4185 91.9359 23.3185 84.6359L44.6185 81.4859C46.1185 87.6859 49.2185 92.4609 53.9185 95.8109C58.6185 99.1609 63.9685 100.836 69.9685 100.836C73.3185 100.836 76.5685 100.311 79.7185 99.2609C82.8685 98.2109 85.4435 96.6609 87.4435 94.6109C89.4935 92.5609 90.5185 90.0359 90.5185 87.0359C90.5185 85.9359 90.3435 84.8859 89.9935 83.8859C89.6935 82.8359 89.1685 81.8609 88.4185 80.9609C87.6685 80.0609 86.5935 79.2109 85.1935 78.4109C83.8435 77.6109 82.1185 76.8859 80.0185 76.2359L51.9685 67.9859C49.8685 67.3859 47.4185 66.5359 44.6185 65.4359C41.8685 64.3359 39.1935 62.7609 36.5935 60.7109C33.9935 58.6609 31.8185 55.9609 30.0685 52.6109C28.3685 49.2109 27.5185 44.9359 27.5185 39.7858C27.5185 32.5358 29.3435 26.5109 32.9935 21.7109C36.6435 16.9108 41.5185 13.3358 47.6185 10.9859C53.7185 8.63585 60.4685 7.48585 67.8685 7.53585C75.3185 7.63585 81.9685 8.91085 87.8185 11.3609C93.6685 13.8109 98.5685 17.3859 102.518 22.0859C106.468 26.7358 109.318 32.4359 111.068 39.1859L89.0185 42.9359C88.2185 39.4359 86.7435 36.4858 84.5935 34.0859C82.4435 31.6859 79.8685 29.8609 76.8685 28.6109C73.9185 27.3609 70.8185 26.6859 67.5685 26.5858C64.3685 26.4858 61.3435 26.9359 58.4935 27.9358C55.6935 28.8859 53.3935 30.2859 51.5935 32.1358C49.8435 33.9859 48.9685 36.1859 48.9685 38.7359C48.9685 41.0859 49.6935 43.0109 51.1435 44.5109C52.5935 45.9609 54.4185 47.1359 56.6185 48.0359C58.8185 48.9359 61.0685 49.6859 63.3685 50.2859L82.1185 55.3859C84.9185 56.1359 88.0185 57.1359 91.4185 58.3859C94.8185 59.5859 98.0685 61.2859 101.168 63.4859C104.318 65.6359 106.893 68.4859 108.893 72.0359C110.943 75.5859 111.968 80.0859 111.968 85.5359C111.968 91.3359 110.743 96.4109 108.293 100.761C105.893 105.061 102.643 108.636 98.5435 111.486C94.4435 114.286 89.7935 116.386 84.5935 117.786C79.4435 119.186 74.1185 119.886 68.6185 119.886Z" fill="#BDBDBD"/>
<path d="M46.9435 115.686L46.5367 116.599L46.5453 116.603L46.9435 115.686ZM31.1185 103.536L30.3275 104.148L30.334 104.156L31.1185 103.536ZM23.3185 84.6359L23.1722 83.6466L22.1802 83.7933L22.3296 84.7849L23.3185 84.6359ZM44.6185 81.4859L45.5904 81.2507L45.3757 80.363L44.4722 80.4966L44.6185 81.4859ZM53.9185 95.8109L54.4989 94.9965L54.4989 94.9965L53.9185 95.8109ZM79.7185 99.2609L79.4023 98.3122L79.4023 98.3122L79.7185 99.2609ZM87.4435 94.6109L86.7363 93.9037L86.7277 93.9125L87.4435 94.6109ZM89.9935 83.8859L89.032 84.1606L89.04 84.1886L89.0496 84.2162L89.9935 83.8859ZM88.4185 80.9609L89.1867 80.3207L89.1867 80.3207L88.4185 80.9609ZM85.1935 78.4109L84.6837 79.2711L84.6905 79.2752L84.6973 79.2791L85.1935 78.4109ZM80.0185 76.2359L80.3142 75.2805L80.3006 75.2765L80.0185 76.2359ZM51.9685 67.9859L52.2507 67.0265L52.2432 67.0243L51.9685 67.9859ZM44.6185 65.4359L44.2471 66.3643L44.2528 66.3666L44.6185 65.4359ZM36.5935 60.7109L37.2126 59.9256L37.2126 59.9256L36.5935 60.7109ZM30.0685 52.6109L29.1741 53.0581L29.178 53.066L29.1821 53.0739L30.0685 52.6109ZM32.9935 21.7109L33.7895 22.3161L33.7895 22.3161L32.9935 21.7109ZM47.6185 10.9859L47.978 11.919L47.978 11.919L47.6185 10.9859ZM67.8685 7.53585L67.8819 6.53592L67.8752 6.53588L67.8685 7.53585ZM87.8185 11.3609L88.2048 10.4385L88.2048 10.4385L87.8185 11.3609ZM102.518 22.0859L101.753 22.7292L101.756 22.7333L102.518 22.0859ZM111.068 39.1859L111.236 40.1717L112.31 39.9891L112.036 38.9349L111.068 39.1859ZM89.0185 42.9359L88.0436 43.1587L88.2543 44.0802L89.1861 43.9217L89.0185 42.9359ZM84.5935 34.0859L83.8486 34.7531L83.8486 34.7531L84.5935 34.0859ZM76.8685 28.6109L76.4783 29.5316L76.4839 29.5339L76.8685 28.6109ZM67.5685 26.5858L67.5372 27.5854L67.5377 27.5854L67.5685 26.5858ZM58.4935 27.9358L58.8148 28.8829L58.8246 28.8794L58.4935 27.9358ZM51.5935 32.1358L50.8767 31.4384L50.867 31.4486L51.5935 32.1358ZM51.1435 44.5109L50.4245 45.2059L50.4304 45.212L50.4364 45.218L51.1435 44.5109ZM56.6185 48.0359L56.9971 47.1103L56.9971 47.1103L56.6185 48.0359ZM63.3685 50.2859L63.631 49.3209L63.6209 49.3182L63.3685 50.2859ZM82.1185 55.3859L81.856 56.3508L81.8597 56.3518L82.1185 55.3859ZM91.4185 58.3859L91.0734 59.3245L91.0857 59.3288L91.4185 58.3859ZM101.168 63.4859L100.59 64.3014L100.597 64.3066L100.605 64.3118L101.168 63.4859ZM108.893 72.0359L108.022 72.5267L108.028 72.5359L108.893 72.0359ZM108.293 100.761L107.422 100.27L107.42 100.273L108.293 100.761ZM98.5435 111.486L99.1075 112.312L99.1143 112.307L98.5435 111.486ZM84.5935 117.786L84.3335 116.82L84.3312 116.821L84.5935 117.786ZM68.6185 118.886C60.7367 118.886 53.6498 117.507 47.3417 114.769L46.5453 116.603C53.1371 119.465 60.5003 120.886 68.6185 120.886V118.886ZM47.3503 114.772C41.0909 111.985 35.9479 108.033 31.903 102.916L30.334 104.156C34.589 109.539 39.9961 113.687 46.5367 116.599L47.3503 114.772ZM31.9094 102.924C27.9241 97.7723 25.3846 91.6358 24.3073 84.4869L22.3296 84.7849C23.4524 92.2359 26.1128 98.6995 30.3275 104.148L31.9094 102.924ZM23.4648 85.6251L44.7648 82.4751L44.4722 80.4966L23.1722 83.6466L23.4648 85.6251ZM43.6465 81.721C45.1967 88.1285 48.4211 93.1205 53.3381 96.6252L54.4989 94.9965C50.0159 91.8012 47.0403 87.2433 45.5904 81.2507L43.6465 81.721ZM53.3381 96.6252C58.2145 100.101 63.7692 101.836 69.9685 101.836V99.8359C64.1678 99.8359 59.0225 98.2208 54.4989 94.9965L53.3381 96.6252ZM69.9685 101.836C73.425 101.836 76.7818 101.294 80.0347 100.21L79.4023 98.3122C76.3551 99.3279 73.212 99.8359 69.9685 99.8359V101.836ZM80.0347 100.21C83.3118 99.1172 86.0314 97.4902 88.1593 95.3092L86.7277 93.9125C84.8555 95.8315 82.4252 97.3045 79.4023 98.3122L80.0347 100.21ZM88.1506 95.318C90.3953 93.0733 91.5185 90.2908 91.5185 87.0359H89.5185C89.5185 89.7809 88.5917 92.0485 86.7364 93.9037L88.1506 95.318ZM91.5185 87.0359C91.5185 85.8277 91.3259 84.6657 90.9373 83.5555L89.0496 84.2162C89.3611 85.106 89.5185 86.044 89.5185 87.0359H91.5185ZM90.955 83.6111C90.614 82.4176 90.0193 81.3198 89.1867 80.3207L87.6503 81.601C88.3177 82.4019 88.773 83.2541 89.032 84.1606L90.955 83.6111ZM89.1867 80.3207C88.3375 79.3017 87.1569 78.3811 85.6896 77.5426L84.6973 79.2791C86.03 80.0406 86.9994 80.82 87.6503 81.601L89.1867 80.3207ZM85.7033 77.5506C84.265 76.6983 82.4617 75.9453 80.3142 75.2806L79.7228 77.1911C81.7753 77.8264 83.4219 78.5234 84.6837 79.2711L85.7033 77.5506ZM80.3006 75.2765L52.2506 67.0265L51.6863 68.9452L79.7363 77.1952L80.3006 75.2765ZM52.2432 67.0243C50.183 66.4357 47.7646 65.5974 44.9841 64.5051L44.2528 66.3666C47.0724 67.4743 49.554 68.336 51.6938 68.9474L52.2432 67.0243ZM44.9899 64.5074C42.3387 63.4469 39.7461 61.9231 37.2126 59.9256L35.9743 61.4961C38.6409 63.5986 41.3983 65.2248 44.2471 66.3643L44.9899 64.5074ZM37.2126 59.9256C34.7381 57.9745 32.6487 55.3904 30.9548 52.1478L29.1821 53.0739C30.9882 56.5313 33.2489 59.3472 35.9743 61.4961L37.2126 59.9256ZM30.9629 52.1636C29.3525 48.9428 28.5185 44.833 28.5185 39.7858H26.5185C26.5185 45.0387 27.3845 49.4789 29.1741 53.0581L30.9629 52.1636ZM28.5185 39.7858C28.5185 32.709 30.297 26.909 33.7895 22.3161L32.1975 21.1056C28.39 26.1127 26.5185 32.3627 26.5185 39.7858H28.5185ZM33.7895 22.3161C37.3178 17.6762 42.036 14.2081 47.978 11.919L47.259 10.0527C41.001 12.4636 35.9692 16.1455 32.1975 21.1056L33.7895 22.3161ZM47.978 11.919C53.9468 9.61955 60.5705 8.48656 67.8617 8.53583L67.8752 6.53588C60.3665 6.48514 53.4902 7.65215 47.259 10.0527L47.978 11.919ZM67.8551 8.53576C75.199 8.63434 81.7191 9.89057 87.4322 12.2832L88.2048 10.4385C82.2179 7.93113 75.438 6.63737 67.8819 6.53594L67.8551 8.53576ZM87.4322 12.2832C93.1404 14.6738 97.9088 18.1552 101.753 22.7292L103.284 21.4425C99.2282 16.6165 94.1966 12.9479 88.2048 10.4385L87.4322 12.2832ZM101.756 22.7333C105.596 27.2529 108.383 32.8119 110.1 39.4368L112.036 38.9349C110.254 32.0598 107.341 26.2188 103.281 21.4384L101.756 22.7333ZM110.901 38.2L88.8508 41.95L89.1861 43.9217L111.236 40.1717L110.901 38.2ZM89.9933 42.713C89.16 39.067 87.6139 35.9588 85.3383 33.4186L83.8486 34.7531C85.8731 37.0129 87.277 39.8047 88.0436 43.1587L89.9933 42.713ZM85.3383 33.4186C83.0879 30.9065 80.3895 28.9946 77.2531 27.6878L76.4839 29.5339C79.3475 30.7271 81.799 32.4652 83.8486 34.7531L85.3383 33.4186ZM77.2586 27.6901C74.193 26.3911 70.971 25.6901 67.5992 25.5863L67.5377 27.5854C70.666 27.6816 73.6439 28.3306 76.4783 29.5316L77.2586 27.6901ZM67.5997 25.5863C64.284 25.4827 61.1355 25.949 58.1624 26.9922L58.8246 28.8794C61.5514 27.9227 64.453 27.489 67.5372 27.5854L67.5997 25.5863ZM58.1722 26.9889C55.2444 27.9822 52.8021 29.4597 50.8768 31.4385L52.3102 32.8332C53.9849 31.112 56.1426 29.7895 58.8148 28.8828L58.1722 26.9889ZM50.867 31.4486C48.9411 33.4846 47.9685 35.9306 47.9685 38.7359H49.9685C49.9685 36.4411 50.7459 34.4871 52.32 32.823L50.867 31.4486ZM47.9685 38.7359C47.9685 41.3096 48.7709 43.4953 50.4245 45.2059L51.8625 43.8158C50.616 42.5264 49.9685 40.8621 49.9685 38.7359H47.9685ZM50.4364 45.218C51.994 46.7756 53.9363 48.019 56.2399 48.9614L56.9971 47.1103C54.9007 46.2527 53.193 45.1461 51.8506 43.8037L50.4364 45.218ZM56.2399 48.9614C58.4809 49.8782 60.7731 50.6423 63.1161 51.2535L63.6209 49.3182C61.3639 48.7294 59.156 47.9935 56.9971 47.1103L56.2399 48.9614ZM63.106 51.2508L81.856 56.3508L82.3809 54.4209L63.6309 49.3209L63.106 51.2508ZM81.8597 56.3518C84.6244 57.0923 87.6951 58.0824 91.0734 59.3244L91.7636 57.4473C88.3419 56.1893 85.2125 55.1794 82.3772 54.4199L81.8597 56.3518ZM91.0857 59.3288C94.3935 60.4963 97.5613 62.1521 100.59 64.3014L101.747 62.6703C98.5757 60.4196 95.2434 58.6754 91.7513 57.4429L91.0857 59.3288ZM100.605 64.3118C103.619 66.3693 106.092 69.1012 108.022 72.5267L109.765 71.545C107.695 67.8705 105.018 64.9024 101.732 62.6599L100.605 64.3118ZM108.028 72.5359C109.965 75.8918 110.968 80.2054 110.968 85.5359H112.968C112.968 79.9663 111.922 75.2799 109.759 71.5358L108.028 72.5359ZM110.968 85.5359C110.968 91.192 109.775 96.0926 107.422 100.27L109.165 101.252C111.712 96.7291 112.968 91.4797 112.968 85.5359H110.968ZM107.42 100.273C105.095 104.439 101.95 107.9 97.9727 110.665L99.1143 112.307C103.337 109.371 106.691 105.683 109.167 101.248L107.42 100.273ZM97.9795 110.66C93.9798 113.392 89.4342 115.447 84.3335 116.82L84.8535 118.751C90.1527 117.325 94.9071 115.18 99.1074 112.312L97.9795 110.66ZM84.3312 116.821C79.2693 118.197 74.0326 118.886 68.6185 118.886V120.886C74.2044 120.886 79.6177 120.175 84.8558 118.751L84.3312 116.821Z" fill="black"/>
</g>
<g filter="url(#filter6_d_1_53)">
<path d="M83.92 117.613C76.1926 119.683 68.8515 120.201 61.8965 119.166C54.977 118.069 48.8335 115.522 43.4661 111.525C38.1341 107.467 33.9921 102.055 31.0402 95.2883L50.7992 86.7327C53.8527 92.3333 58.083 96.1432 63.4898 98.1626C68.8967 100.182 74.498 100.415 80.2935 98.8623C83.5294 97.9953 86.5328 96.647 89.3037 94.8175C92.0746 92.988 94.1607 90.8244 95.5619 88.3266C97.0115 85.8159 97.3481 83.1116 96.5716 80.2138C96.2869 79.1513 95.8461 78.1824 95.2492 77.3071C94.6877 76.3705 93.9282 75.5646 92.9708 74.8894C92.0134 74.2141 90.7551 73.6713 89.1957 73.2609C87.6847 72.8376 85.8308 72.5838 83.6341 72.4994L54.4047 71.7904C52.2209 71.7544 49.6344 71.5675 46.6451 71.2296C43.7041 70.8789 40.7126 70.0499 37.6706 68.7427C34.6286 67.4354 31.8289 65.3904 29.2715 62.6075C26.7495 59.7633 24.822 55.854 23.4891 50.8794C21.6126 43.8765 21.8161 37.5844 24.0994 32.0033C26.3827 26.4222 30.1663 21.7072 35.4502 17.8585C40.7341 14.0098 46.9565 11.152 54.1173 9.28499C61.3393 7.45338 68.0927 6.96379 74.3775 7.81621C80.6622 8.66864 86.3206 10.8536 91.3524 14.3711C96.3713 17.8403 100.599 22.6085 104.037 28.6756L83.7088 38.0047C82.0302 34.8311 79.8419 32.3633 77.144 30.6016C74.4461 28.8398 71.4865 27.7435 68.2652 27.3125C65.0922 26.8686 61.9231 27.019 58.758 27.7635C55.6411 28.4951 52.8357 29.7127 50.3416 31.4163C47.8829 33.0586 46.0236 35.0062 44.7638 37.259C43.5522 39.4989 43.2764 41.8504 43.9364 44.3136C44.5446 46.5835 45.7432 48.2552 47.532 49.3288C49.3079 50.3541 51.3748 51.0168 53.7328 51.3167C56.0907 51.6166 58.4582 51.7587 60.8351 51.743L80.2662 51.8164C83.1649 51.8161 86.4181 51.9797 90.0258 52.3071C93.6205 52.5863 97.1997 53.3872 100.764 54.7099C104.363 55.9713 107.588 58.0578 110.438 60.9692C113.337 63.8676 115.492 67.949 116.902 73.2133C118.404 78.8157 118.534 84.0348 117.293 88.8707C116.088 93.6453 113.874 97.9397 110.651 101.754C107.416 105.519 103.468 108.751 98.8072 111.45C94.195 114.135 89.2326 116.189 83.92 117.613Z" fill="#E0E0E0"/>
<path d="M61.8965 119.166L61.74 120.153L61.7493 120.155L61.8965 119.166ZM43.4661 111.525L42.8604 112.321L42.8688 112.328L43.4661 111.525ZM31.0402 95.2883L30.6429 94.3706L29.7227 94.769L30.1236 95.6881L31.0402 95.2883ZM50.7992 86.7327L51.6771 86.254L51.2399 85.4522L50.4018 85.8151L50.7992 86.7327ZM63.4898 98.1626L63.8397 97.2258L63.8397 97.2258L63.4898 98.1626ZM89.3037 94.8175L88.7527 93.983L88.7527 93.983L89.3037 94.8175ZM95.5619 88.3266L94.6958 87.8266L94.6898 87.8373L95.5619 88.3266ZM95.2492 77.3071L94.3915 77.8213L94.4066 77.8463L94.423 77.8704L95.2492 77.3071ZM92.9708 74.8894L93.5472 74.0722L93.5472 74.0722L92.9708 74.8894ZM89.1957 73.2609L88.926 74.2239L88.9336 74.226L88.9412 74.228L89.1957 73.2609ZM83.6341 72.4994L83.6725 71.5001L83.6584 71.4997L83.6341 72.4994ZM54.4047 71.7904L54.4289 70.7907L54.4212 70.7906L54.4047 71.7904ZM46.6451 71.2296L46.5267 72.2226L46.5328 72.2233L46.6451 71.2296ZM37.6706 68.7427L38.0654 67.8239L38.0654 67.8239L37.6706 68.7427ZM29.2715 62.6075L28.5233 63.2709L28.5292 63.2776L28.5352 63.2841L29.2715 62.6075ZM24.0994 32.0033L25.0249 32.3819L25.0249 32.3819L24.0994 32.0033ZM35.4502 17.8585L36.0389 18.6668L36.0389 18.6668L35.4502 17.8585ZM54.1173 9.28499L53.8714 8.31565L53.865 8.31734L54.1173 9.28499ZM74.3775 7.81621L74.5119 6.82529L74.5119 6.82529L74.3775 7.81621ZM91.3524 14.3711L90.7795 15.1907L90.7838 15.1937L91.3524 14.3711ZM104.037 28.6756L104.454 29.5844L105.444 29.1302L104.907 28.1826L104.037 28.6756ZM83.7088 38.0047L82.8248 38.4723L83.2668 39.3079L84.1259 38.9136L83.7088 38.0047ZM77.144 30.6016L76.5973 31.4389L76.5973 31.4389L77.144 30.6016ZM68.2652 27.3125L68.1267 28.3029L68.1326 28.3037L68.2652 27.3125ZM58.758 27.7635L58.9865 28.7371L58.987 28.7369L58.758 27.7635ZM50.3416 31.4163L50.8971 32.2479L50.9056 32.2421L50.3416 31.4163ZM44.7638 37.259L43.8909 36.7709L43.8842 36.7833L44.7638 37.259ZM47.532 49.3288L47.0174 50.1863L47.0246 50.1906L47.032 50.1949L47.532 49.3288ZM53.7328 51.3167L53.859 50.3247L53.859 50.3247L53.7328 51.3167ZM60.8351 51.743L60.8389 50.743L60.8285 50.743L60.8351 51.743ZM80.2662 51.8164L80.2624 52.8164L80.2663 52.8164L80.2662 51.8164ZM90.0258 52.3071L89.9354 53.3031L89.9483 53.3041L90.0258 52.3071ZM100.764 54.7099L100.416 55.6474L100.424 55.6506L100.433 55.6536L100.764 54.7099ZM110.438 60.9692L109.724 61.6688L109.731 61.6763L110.438 60.9692ZM117.293 88.8707L116.325 88.6222L116.324 88.6259L117.293 88.8707ZM110.651 101.754L111.41 102.405L111.415 102.399L110.651 101.754ZM98.8072 111.45L98.3061 110.584L98.304 110.585L98.8072 111.45ZM83.6612 116.647C76.048 118.687 68.8457 119.189 62.0438 118.177L61.7493 120.155C68.8572 121.213 76.3373 120.68 84.1788 118.579L83.6612 116.647ZM62.053 118.178C55.2855 117.106 49.2949 114.619 44.0634 110.723L42.8688 112.328C48.3721 116.426 54.6684 119.033 61.74 120.153L62.053 118.178ZM44.0718 110.73C38.8889 106.785 34.8476 101.515 31.9568 94.8884L30.1236 95.6881C33.1366 102.595 37.3793 108.149 42.8605 112.321L44.0718 110.73ZM31.4376 96.2059L51.1965 87.6504L50.4018 85.8151L30.6429 94.3706L31.4376 96.2059ZM49.9212 87.2114C53.0769 92.9993 57.4834 96.9868 63.14 99.0994L63.8397 97.2258C58.6825 95.2997 54.6285 91.6672 51.6771 86.254L49.9212 87.2114ZM63.14 99.0994C68.7498 101.195 74.5643 101.433 80.5523 99.8283L80.0347 97.8964C74.4317 99.3978 69.0436 99.1694 63.8397 97.2258L63.14 99.0994ZM80.5523 99.8283C83.8911 98.9337 86.9932 97.5413 89.8546 95.652L88.7527 93.983C86.0723 95.7528 83.1677 97.0569 80.0347 97.8964L80.5523 99.8283ZM89.8546 95.652C92.7373 93.7487 94.9432 91.4733 96.4341 88.8159L94.6898 87.8373C93.3781 90.1755 91.4118 92.2273 88.7527 93.983L89.8546 95.652ZM96.428 88.8266C98.0152 86.0774 98.38 83.099 97.5375 79.955L95.6057 80.4727C96.3162 83.1242 96.0078 85.5543 94.6959 87.8266L96.428 88.8266ZM97.5375 79.955C97.2248 78.788 96.7381 77.7155 96.0754 76.7437L94.423 77.8704C94.9541 78.6493 95.349 79.5146 95.6057 80.4727L97.5375 79.955ZM96.1069 76.7928C95.4686 75.7282 94.61 74.8217 93.5472 74.0722L92.3945 75.7066C93.2464 76.3074 93.9068 77.0127 94.3915 77.8213L96.1069 76.7928ZM93.5472 74.0722C92.4632 73.3077 91.0846 72.724 89.4502 72.2939L88.9412 74.228C90.4256 74.6187 91.5637 75.1206 92.3945 75.7066L93.5472 74.0722ZM89.4655 72.298C87.8557 71.847 85.9188 71.5864 83.6725 71.5002L83.5958 73.4987C85.7428 73.5811 87.5137 73.8282 88.926 74.2239L89.4655 72.298ZM83.6584 71.4997L54.4289 70.7907L54.3804 72.7901L83.6099 73.4991L83.6584 71.4997ZM54.4212 70.7906C52.2788 70.7552 49.7258 70.5714 46.7574 70.236L46.5328 72.2233C49.543 72.5635 52.163 72.7536 54.3882 72.7903L54.4212 70.7906ZM46.7635 70.2367C43.9282 69.8985 41.0296 69.0977 38.0654 67.8239L37.2758 69.6614C40.3957 71.0021 43.48 71.8592 46.5267 72.2226L46.7635 70.2367ZM38.0654 67.8239C35.1702 66.5798 32.4833 64.6245 30.0078 61.9308L28.5352 63.2841C31.1746 66.1562 34.0871 68.2911 37.2758 69.6614L38.0654 67.8239ZM30.0197 61.944C27.6306 59.2497 25.7613 55.4958 24.455 50.6206L22.5231 51.1383C23.8827 56.2122 25.8684 60.2769 28.5233 63.2709L30.0197 61.944ZM24.455 50.6206C22.6234 43.7849 22.8401 37.7223 25.0249 32.3819L23.1738 31.6247C20.792 37.4466 20.6019 43.9681 22.5231 51.1383L24.455 50.6206ZM25.0249 32.3819C27.2321 26.9869 30.8919 22.4159 36.0389 18.6668L34.8614 17.0502C29.4406 20.9986 25.5332 25.8574 23.1738 31.6247L25.0249 32.3819ZM36.0389 18.6668C41.2092 14.9009 47.314 12.0922 54.3695 10.2526L53.865 8.31734C46.5989 10.2117 40.259 13.1187 34.8614 17.0502L36.0389 18.6668ZM54.3631 10.2543C61.4823 8.44877 68.1054 7.97466 74.2431 8.80714L74.5119 6.82529C68.08 5.95291 61.1963 6.45798 53.8714 8.31568L54.3631 10.2543ZM74.2431 8.80714C80.3755 9.63891 85.8825 11.7675 90.7795 15.1907L91.9253 13.5515C86.7586 9.93975 80.949 7.69838 74.5119 6.82529L74.2431 8.80714ZM90.7838 15.1937C95.662 18.5657 99.7931 23.2139 103.167 29.1685L104.907 28.1826C101.406 22.0031 97.0806 17.115 91.921 13.5485L90.7838 15.1937ZM103.62 27.7667L83.2917 37.0959L84.1259 38.9136L104.454 29.5844L103.62 27.7667ZM84.5928 37.5372C82.8441 34.2311 80.5463 31.6289 77.6908 29.7643L76.5973 31.4389C79.1376 33.0977 81.2162 35.431 82.8248 38.4723L84.5928 37.5372ZM77.6908 29.7643C74.8669 27.9203 71.7656 26.7719 68.3978 26.3213L68.1326 28.3037C71.2074 28.715 74.0253 29.7594 76.5973 31.4389L77.6908 29.7643ZM68.4038 26.3221C65.1064 25.8609 61.8127 26.0176 58.529 26.7901L58.987 28.7369C62.0335 28.0203 65.078 27.8764 68.1267 28.3029L68.4038 26.3221ZM58.5295 26.79C55.2999 27.5481 52.3794 28.8134 49.7776 30.5905L50.9056 32.2421C53.2919 30.6121 55.9824 29.4422 58.9865 28.7371L58.5295 26.79ZM49.7862 30.5847C47.2152 32.302 45.2385 34.3613 43.891 36.7709L45.6366 37.7471C46.8087 35.6511 48.5506 33.8152 50.8971 32.2479L49.7862 30.5847ZM43.8842 36.7833C42.5508 39.2483 42.2444 41.8627 42.9705 44.5724L44.9023 44.0547C44.3084 41.8381 44.5536 39.7495 45.6433 37.7348L43.8842 36.7833ZM42.9705 44.5724C43.6366 47.0584 44.9774 48.962 47.0174 50.1863L48.0466 48.4714C46.5089 47.5485 45.4527 46.1085 44.9023 44.0547L42.9705 44.5724ZM47.032 50.1949C48.9397 51.2963 51.1376 51.9947 53.6066 52.3087L53.859 50.3247C51.612 50.0389 49.676 49.412 48.032 48.4628L47.032 50.1949ZM53.6066 52.3087C56.0086 52.6142 58.4204 52.759 60.8417 52.743L60.8285 50.743C58.496 50.7585 56.1729 50.619 53.859 50.3247L53.6066 52.3087ZM60.8313 52.743L80.2624 52.8164L80.27 50.8164L60.8389 50.743L60.8313 52.743ZM80.2663 52.8164C83.1284 52.8161 86.3507 52.9777 89.9354 53.303L90.1162 51.3112C86.4855 50.9817 83.2014 50.8161 80.2661 50.8164L80.2663 52.8164ZM89.9483 53.3041C93.4457 53.5757 96.934 54.3552 100.416 55.6474L101.111 53.7724C97.4654 52.4191 93.7953 51.5968 90.1032 51.3101L89.9483 53.3041ZM100.433 55.6536C103.877 56.8608 106.973 58.8595 109.724 61.6688L111.153 60.2695C108.202 57.2561 104.848 55.0819 101.094 53.7661L100.433 55.6536ZM109.731 61.6763C112.472 64.4163 114.557 68.3233 115.937 73.4721L117.868 72.9545C116.427 67.5747 114.203 63.3189 111.145 60.262L109.731 61.6763ZM115.937 73.4721C117.4 78.9355 117.516 83.978 116.325 88.6222L118.262 89.1192C119.552 84.0915 119.407 78.6958 117.868 72.9545L115.937 73.4721ZM116.324 88.6259C115.156 93.251 113.013 97.4087 109.887 101.108L111.415 102.399C114.735 98.4706 117.02 94.0396 118.263 89.1154L116.324 88.6259ZM109.893 101.102C106.736 104.776 102.878 107.937 98.3061 110.584L99.3082 112.315C104.058 109.565 108.095 106.263 111.41 102.405L109.893 101.102ZM98.304 110.585C93.7708 113.225 88.8908 115.245 83.6612 116.647L84.1788 118.579C89.5744 117.133 94.6192 115.045 99.3103 112.314L98.304 110.585Z" fill="black"/>
</g>
<g filter="url(#filter7_d_1_53)">
<path d="M98.1118 111.457C91.1836 115.457 84.2266 117.857 77.2407 118.657C70.2732 119.389 63.6799 118.519 57.4609 116.047C51.2602 113.507 45.8585 109.351 41.2559 103.579L58.1272 90.2012C62.5263 94.8205 67.5984 97.4058 73.3438 97.957C79.0891 98.5082 84.5598 97.2838 89.756 94.2838C92.6572 92.6088 95.2092 90.5291 97.4122 88.0448C99.6152 85.5605 101.07 82.9306 101.777 80.1553C102.528 77.3549 102.153 74.6557 100.653 72.0576C100.103 71.105 99.4262 70.2832 98.6231 69.5921C97.8383 68.8328 96.8962 68.2509 95.7966 67.8465C94.6971 67.4421 93.3411 67.2435 91.7287 67.2506C90.1596 67.2328 88.3032 67.4675 86.1595 67.9545L57.7425 74.8348C55.6239 75.3652 53.0771 75.8541 50.1022 76.3015C47.1707 76.7238 44.0665 76.6973 40.7899 76.222C37.5132 75.7466 34.2796 74.4959 31.0891 72.4697C27.9168 70.3752 25.0432 67.0979 22.4682 62.6379C18.8432 56.3592 17.4112 50.2289 18.1722 44.247C18.9332 38.2651 21.3675 32.7315 25.4753 27.6464C29.5831 22.5612 34.8537 18.1903 41.2873 14.5336C47.7892 10.8952 54.1858 8.67438 60.477 7.87114C66.7683 7.06791 72.7993 7.71395 78.5701 9.80927C84.3159 11.8613 89.6341 15.3726 94.5246 20.3433L77.3038 34.6159C74.8609 31.9848 72.1085 30.1675 69.0466 29.1641C65.9846 28.1606 62.8421 27.8676 59.619 28.2851C56.4393 28.6776 53.4171 29.643 50.5525 31.1814C47.7312 32.6948 45.3365 34.597 43.3683 36.888C41.4185 39.1107 40.1266 41.4732 39.4927 43.9753C38.9022 46.4525 39.2444 48.7952 40.5194 51.0036C41.6944 53.0388 43.2848 54.3434 45.2905 54.9174C47.2713 55.4481 49.4393 55.5532 51.7945 55.2326C54.1498 54.912 56.4733 54.4366 58.7652 53.8062L77.5532 48.8479C80.353 48.0974 83.5377 47.4135 87.1072 46.796C90.6517 46.1352 94.3163 45.9825 98.101 46.3377C101.904 46.6247 105.559 47.8053 109.066 49.8797C112.616 51.9291 115.754 55.3137 118.479 60.0336C121.379 65.0565 122.856 70.0641 122.909 75.0563C122.98 79.9802 121.953 84.7013 119.828 89.2194C117.677 93.6943 114.7 97.838 110.897 101.65C107.137 105.438 102.875 108.707 98.1118 111.457Z" fill="#F2F2F2"/>
<path d="M77.2407 118.657L77.3452 119.651L77.3545 119.65L77.2407 118.657ZM57.4609 116.047L57.0818 116.972L57.0915 116.976L57.4609 116.047ZM41.2559 103.579L40.6346 102.796L39.8489 103.419L40.474 104.203L41.2559 103.579ZM58.1272 90.2012L58.8514 89.5115L58.2215 88.8502L57.5059 89.4176L58.1272 90.2012ZM73.3438 97.957L73.4393 96.9616L73.4393 96.9616L73.3438 97.957ZM97.4122 88.0448L96.664 87.3813L96.664 87.3813L97.4122 88.0448ZM101.777 80.1553L100.811 79.8964L100.808 79.9084L101.777 80.1553ZM98.6231 69.5921L97.9278 70.3108L97.9488 70.3311L97.9709 70.3502L98.6231 69.5921ZM95.7966 67.8465L96.1418 66.908L96.1418 66.908L95.7966 67.8465ZM91.7287 67.2506L91.7173 68.2506L91.7253 68.2507L91.7332 68.2506L91.7287 67.2506ZM86.1595 67.9545L85.9379 66.9793L85.9242 66.9826L86.1595 67.9545ZM57.7425 74.8348L57.5072 73.8629L57.4997 73.8648L57.7425 74.8348ZM50.1022 76.3015L50.2448 77.2913L50.2509 77.2903L50.1022 76.3015ZM40.7899 76.222L40.9334 75.2324L40.9334 75.2324L40.7899 76.222ZM31.0891 72.4697L30.5381 73.3042L30.5455 73.3091L30.553 73.3139L31.0891 72.4697ZM18.1722 44.247L19.1642 44.3732L19.1642 44.3732L18.1722 44.247ZM25.4753 27.6464L26.2532 28.2748L26.2532 28.2748L25.4753 27.6464ZM41.2873 14.5336L40.799 13.6609L40.7932 13.6642L41.2873 14.5336ZM60.477 7.87114L60.3504 6.87919L60.3504 6.87919L60.477 7.87114ZM78.5701 9.80927L78.2288 10.7492L78.2338 10.751L78.5701 9.80927ZM94.5246 20.3433L95.1627 21.1132L96.0012 20.4183L95.2374 19.642L94.5246 20.3433ZM77.3038 34.6159L76.5709 35.2963L77.2141 35.989L77.9419 35.3858L77.3038 34.6159ZM69.0466 29.1641L68.7352 30.1143L68.7352 30.1143L69.0466 29.1641ZM59.619 28.2851L59.7415 29.2776L59.7475 29.2768L59.619 28.2851ZM50.5525 31.1814L51.0252 32.0626L51.0256 32.0624L50.5525 31.1814ZM43.3683 36.888L44.1201 37.5475L44.1269 37.5396L43.3683 36.888ZM39.4927 43.9753L38.5233 43.7297L38.52 43.7434L39.4927 43.9753ZM45.2905 54.9174L45.0154 55.8788L45.0235 55.8811L45.0317 55.8833L45.2905 54.9174ZM51.7945 55.2326L51.6597 54.2418L51.6597 54.2418L51.7945 55.2326ZM58.7652 53.8062L58.51 52.8392L58.5 52.842L58.7652 53.8062ZM77.5532 48.8479L77.8083 49.8148L77.8121 49.8138L77.5532 48.8479ZM87.1072 46.796L87.2777 47.7814L87.2905 47.7791L87.1072 46.796ZM98.101 46.3377L98.0075 47.3333L98.0166 47.3342L98.0257 47.3349L98.101 46.3377ZM109.066 49.8797L108.557 50.7405L108.566 50.7458L109.066 49.8797ZM122.909 75.0563L121.909 75.067L121.909 75.0708L122.909 75.0563ZM119.828 89.2194L120.729 89.6526L120.733 89.6452L119.828 89.2194ZM110.897 101.65L110.189 100.944L110.187 100.946L110.897 101.65ZM97.6118 110.591C90.786 114.531 83.9592 116.881 77.1269 117.663L77.3545 119.65C84.494 118.833 91.5813 116.382 98.6118 112.323L97.6118 110.591ZM77.1363 117.662C70.3218 118.378 63.8918 117.527 57.8302 115.118L57.0915 116.976C63.468 119.511 70.2245 120.399 77.3452 119.651L77.1363 117.662ZM57.8399 115.122C51.8127 112.653 46.5451 108.608 42.0377 102.956L40.474 104.203C45.1719 110.094 50.7077 114.361 57.0818 116.972L57.8399 115.122ZM41.8772 104.363L58.7485 90.9847L57.5059 89.4176L40.6346 102.796L41.8772 104.363ZM57.4031 90.8908C61.9493 95.6647 67.2377 98.3758 73.2483 98.9524L73.4393 96.9616C67.9592 96.4358 63.1032 93.9763 58.8514 89.5115L57.4031 90.8908ZM73.2483 98.9524C79.2093 99.5243 84.8872 98.2494 90.256 95.1498L89.256 93.4177C84.2324 96.3181 78.9689 97.4921 73.4393 96.9616L73.2483 98.9524ZM90.256 95.1498C93.2494 93.4215 95.8855 91.2737 98.1604 88.7082L96.664 87.3813C94.533 89.7845 92.0649 91.796 89.256 93.4177L90.256 95.1498ZM98.1604 88.7082C100.452 86.1237 101.994 83.3549 102.746 80.4021L100.808 79.9084C100.146 82.5063 98.7781 84.9972 96.664 87.3813L98.1604 88.7082ZM102.743 80.4141C103.565 77.3478 103.146 74.3764 101.519 71.5576L99.7868 72.5576C101.159 74.9349 101.49 77.3621 100.811 79.8964L102.743 80.4141ZM101.519 71.5576C100.915 70.5113 100.167 69.6013 99.2754 68.8341L97.9709 70.3502C98.6855 70.965 99.2908 71.6986 99.7868 72.5576L101.519 71.5576ZM99.3185 68.8735C98.4264 68.0104 97.3625 67.3569 96.1418 66.908L95.4514 68.785C96.4299 69.1449 97.2502 69.6553 97.9278 70.3108L99.3185 68.8735ZM96.1418 66.908C94.8969 66.4501 93.4142 66.2431 91.7243 66.2507L91.7332 68.2506C93.2681 68.2438 94.4973 68.4341 95.4514 68.785L96.1418 66.908ZM91.7401 66.2507C90.0684 66.2317 88.1301 66.4813 85.9379 66.9794L86.3811 68.9297C88.4763 68.4536 90.2508 68.2339 91.7173 68.2506L91.7401 66.2507ZM85.9242 66.9826L57.5072 73.8629L57.9778 75.8067L86.3948 68.9265L85.9242 66.9826ZM57.4997 73.8648C55.4212 74.3851 52.9076 74.8683 49.9535 75.3126L50.2509 77.2903C53.2466 76.8399 55.8266 76.3453 57.9854 75.8049L57.4997 73.8648ZM49.9596 75.3117C47.1334 75.7189 44.1262 75.6955 40.9334 75.2324L40.6463 77.2116C44.0068 77.6992 47.2079 77.7288 50.2448 77.2912L49.9596 75.3117ZM40.9334 75.2324C37.8149 74.7799 34.7134 73.5868 31.6251 71.6255L30.553 73.3139C33.8458 75.405 37.2115 76.7134 40.6463 77.2116L40.9334 75.2324ZM31.64 71.6352C28.6349 69.651 25.8578 66.5088 23.3342 62.1379L21.6022 63.1379C24.2286 67.687 27.1987 71.0994 30.5381 73.3042L31.64 71.6352ZM23.3342 62.1379C19.7958 56.0091 18.436 50.097 19.1642 44.3732L17.1802 44.1208C16.3863 50.3608 17.8906 56.7093 21.6022 63.1379L23.3342 62.1379ZM19.1642 44.3732C19.8998 38.5907 22.2518 33.2282 26.2532 28.2748L24.6974 27.018C20.4832 32.2349 17.9665 37.9395 17.1802 44.1208L19.1642 44.3732ZM26.2532 28.2748C30.2726 23.299 35.4424 19.0059 41.7815 15.403L40.7932 13.6642C34.265 17.3747 28.8935 21.8234 24.6974 27.018L26.2532 28.2748ZM41.7756 15.4063C48.1849 11.8197 54.4597 9.64753 60.6037 8.86309L60.3504 6.87919C53.9119 7.70123 47.3935 9.97073 40.799 13.6609L41.7756 15.4063ZM60.6037 8.86309C66.7424 8.07932 72.6127 8.71006 78.2288 10.7492L78.9114 8.86931C72.9859 6.71784 66.7941 6.05649 60.3504 6.87919L60.6037 8.86309ZM78.2338 10.751C83.8185 12.7455 89.0119 16.1661 93.8118 21.0446L95.2374 19.642C90.2563 14.5792 84.8133 10.9771 78.9064 8.86752L78.2338 10.751ZM93.8865 19.5734L76.6656 33.846L77.9419 35.3858L95.1627 21.1132L93.8865 19.5734ZM78.0366 33.9355C75.4919 31.1947 72.5988 29.2759 69.358 28.2138L68.7352 30.1143C71.6183 31.0592 74.23 32.775 76.5709 35.2963L78.0366 33.9355ZM69.358 28.2138C66.1531 27.1635 62.8602 26.8569 59.4906 27.2934L59.7475 29.2768C62.824 28.8783 65.8162 29.1577 68.7352 30.1143L69.358 28.2138ZM59.4965 27.2926C56.1922 27.7005 53.0513 28.7044 50.0794 30.3004L51.0256 32.0624C53.7829 30.5816 56.6864 29.6546 59.7415 29.2776L59.4965 27.2926ZM50.0798 30.3002C47.1565 31.8683 44.663 33.8464 42.6098 36.2364L44.1269 37.5396C46.01 35.3476 48.306 33.5213 51.0252 32.0626L50.0798 30.3002ZM42.6166 36.2286C40.5777 38.5527 39.2013 41.0534 38.5234 43.7298L40.4621 44.2209C41.0519 41.8929 42.2592 39.6688 44.1201 37.5475L42.6166 36.2286ZM38.52 43.7434C37.8701 46.4696 38.2508 49.0742 39.6534 51.5036L41.3855 50.5036C40.2381 48.5163 39.9343 46.4354 40.4655 44.2072L38.52 43.7434ZM39.6534 51.5036C40.9403 53.7325 42.7281 55.2242 45.0154 55.8788L45.5657 53.956C43.8415 53.4625 42.4486 52.345 41.3855 50.5036L39.6534 51.5036ZM45.0317 55.8833C47.1595 56.4534 49.4633 56.5592 51.9294 56.2235L51.6597 54.2418C49.4153 54.5472 47.3831 54.4428 45.5494 53.9515L45.0317 55.8833ZM51.9294 56.2235C54.3286 55.8969 56.6957 55.4125 59.0304 54.7704L58.5 52.842C56.2509 53.4606 53.9709 53.9272 51.6597 54.2418L51.9294 56.2235ZM59.0204 54.7731L77.8083 49.8148L77.298 47.881L58.51 52.8393L59.0204 54.7731ZM77.8121 49.8138C80.5766 49.0728 83.731 48.3949 87.2777 47.7814L86.9368 45.8106C83.3445 46.432 80.1294 47.1221 77.2943 47.882L77.8121 49.8138ZM87.2905 47.7791C90.7389 47.1362 94.3102 46.9863 98.0075 47.3333L98.1944 45.3421C94.3224 44.9786 90.5645 45.1343 86.9239 45.8129L87.2905 47.7791ZM98.0257 47.3349C101.665 47.6095 105.173 48.7388 108.557 50.7404L109.575 49.019C105.945 46.8719 102.143 45.6398 98.1762 45.3406L98.0257 47.3349ZM108.566 50.7458C111.922 52.6831 114.948 55.9173 117.613 60.5336L119.345 59.5336C116.56 54.7102 113.31 51.1751 109.566 49.0137L108.566 50.7458ZM117.613 60.5336C120.441 65.4319 121.858 70.2727 121.909 75.067L123.909 75.0457C123.853 69.8555 122.317 64.6811 119.345 59.5336L117.613 60.5336ZM121.909 75.0708C121.978 79.8405 120.985 84.4112 118.923 88.7937L120.733 89.6452C122.922 84.9914 123.983 80.1199 123.909 75.0418L121.909 75.0708ZM118.926 88.7863C116.828 93.1517 113.919 97.2045 110.189 100.944L111.605 102.357C115.48 98.4714 118.526 94.237 120.729 89.6526L118.926 88.7863ZM110.187 100.946C106.491 104.669 102.301 107.883 97.6118 110.591L98.6118 112.323C103.449 109.53 107.782 106.207 111.606 102.355L110.187 100.946Z" fill="black"/>
</g>
</g>
<defs>
<filter id="filter0_d_1_53" x="0" y="0" width="136" height="136" filterUnits="userSpaceOnUse" color-interpolation-filters="sRGB">
<feFlood flood-opacity="0" result="BackgroundImageFix"/>
<feColorMatrix in="SourceAlpha" type="matrix" values="0 0 0 0 0 0 0 0 0 0 0 0 0 0 0 0 0 0 127 0" result="hardAlpha"/>
<feOffset dy="4"/>
<feGaussianBlur stdDeviation="2"/>
<feComposite in2="hardAlpha" operator="out"/>
<feColorMatrix type="matrix" values="0 0 0 0 0 0 0 0 0 0 0 0 0 0 0 0 0 0 0.25 0"/>
<feBlend mode="normal" in2="BackgroundImageFix" result="effect1_dropShadow_1_53"/>
<feBlend mode="normal" in="SourceGraphic" in2="effect1_dropShadow_1_53" result="shape"/>
</filter>
<filter id="filter1_d_1_53" x="-9.83487" y="-4.33163" width="149.688" height="140.986" filterUnits="userSpaceOnUse" color-interpolation-filters="sRGB">
<feFlood flood-opacity="0" result="BackgroundImageFix"/>
<feColorMatrix in="SourceAlpha" type="matrix" values="0 0 0 0 0 0 0 0 0 0 0 0 0 0 0 0 0 0 127 0" result="hardAlpha"/>
<feOffset dy="4"/>
<feGaussianBlur stdDeviation="2"/>
<feComposite in2="hardAlpha" operator="out"/>
<feColorMatrix type="matrix" values="0 0 0 0 0 0 0 0 0 0 0 0 0 0 0 0 0 0 0.25 0"/>
<feBlend mode="normal" in2="BackgroundImageFix" result="effect1_dropShadow_1_53"/>
<feBlend mode="normal" in="SourceGraphic" in2="effect1_dropShadow_1_53" result="shape"/>
</filter>
<filter id="filter2_d_1_53" x="-9.59732" y="-8.30167" width="150.181" height="150.181" filterUnits="userSpaceOnUse" color-interpolation-filters="sRGB">
<feFlood flood-opacity="0" result="BackgroundImageFix"/>
<feColorMatrix in="SourceAlpha" type="matrix" values="0 0 0 0 0 0 0 0 0 0 0 0 0 0 0 0 0 0 127 0" result="hardAlpha"/>
<feOffset dy="4"/>
<feGaussianBlur stdDeviation="2"/>
<feComposite in2="hardAlpha" operator="out"/>
<feColorMatrix type="matrix" values="0 0 0 0 0 0 0 0 0 0 0 0 0 0 0 0 0 0 0.25 0"/>
<feBlend mode="normal" in2="BackgroundImageFix" result="effect1_dropShadow_1_53"/>
<feBlend mode="normal" in="SourceGraphic" in2="effect1_dropShadow_1_53" result="shape"/>
</filter>
<filter id="filter3_d_1_53" x="-4.36911" y="-7.57375" width="140.986" height="149.688" filterUnits="userSpaceOnUse" color-interpolation-filters="sRGB">
<feFlood flood-opacity="0" result="BackgroundImageFix"/>
<feColorMatrix in="SourceAlpha" type="matrix" values="0 0 0 0 0 0 0 0 0 0 0 0 0 0 0 0 0 0 127 0" result="hardAlpha"/>
<feOffset dy="4"/>
<feGaussianBlur stdDeviation="2"/>
<feComposite in2="hardAlpha" operator="out"/>
<feColorMatrix type="matrix" values="0 0 0 0 0 0 0 0 0 0 0 0 0 0 0 0 0 0 0.25 0"/>
<feBlend mode="normal" in2="BackgroundImageFix" result="effect1_dropShadow_1_53"/>
<feBlend mode="normal" in="SourceGraphic" in2="effect1_dropShadow_1_53" result="shape"/>
</filter>
<filter id="filter4_d_1_53" x="5.49353" y="-2.19744" width="122.727" height="139.539" filterUnits="userSpaceOnUse" color-interpolation-filters="sRGB">
<feFlood flood-opacity="0" result="BackgroundImageFix"/>
<feColorMatrix in="SourceAlpha" type="matrix" values="0 0 0 0 0 0 0 0 0 0 0 0 0 0 0 0 0 0 127 0" result="hardAlpha"/>
<feOffset dy="4"/>
<feGaussianBlur stdDeviation="2"/>
<feComposite in2="hardAlpha" operator="out"/>
<feColorMatrix type="matrix" values="0 0 0 0 0 0 0 0 0 0 0 0 0 0 0 0 0 0 0.25 0"/>
<feBlend mode="normal" in2="BackgroundImageFix" result="effect1_dropShadow_1_53"/>
<feBlend mode="normal" in="SourceGraphic" in2="effect1_dropShadow_1_53" result="shape"/>
</filter>
<filter id="filter5_d_1_53" x="19.3185" y="7.46085" width="96.65" height="120.425" filterUnits="userSpaceOnUse" color-interpolation-filters="sRGB">
<feFlood flood-opacity="0" result="BackgroundImageFix"/>
<feColorMatrix in="SourceAlpha" type="matrix" values="0 0 0 0 0 0 0 0 0 0 0 0 0 0 0 0 0 0 127 0" result="hardAlpha"/>
<feOffset dy="4"/>
<feGaussianBlur stdDeviation="2"/>
<feComposite in2="hardAlpha" operator="out"/>
<feColorMatrix type="matrix" values="0 0 0 0 0 0 0 0 0 0 0 0 0 0 0 0 0 0 0.25 0"/>
<feBlend mode="normal" in2="BackgroundImageFix" result="effect1_dropShadow_1_53"/>
<feBlend mode="normal" in="SourceGraphic" in2="effect1_dropShadow_1_53" result="shape"/>
</filter>
<filter id="filter6_d_1_53" x="7.06586" y="-2.20138" width="122.727" height="139.539" filterUnits="userSpaceOnUse" color-interpolation-filters="sRGB">
<feFlood flood-opacity="0" result="BackgroundImageFix"/>
<feColorMatrix in="SourceAlpha" type="matrix" values="0 0 0 0 0 0 0 0 0 0 0 0 0 0 0 0 0 0 127 0" result="hardAlpha"/>
<feOffset dy="4"/>
<feGaussianBlur stdDeviation="2"/>
<feComposite in2="hardAlpha" operator="out"/>
<feColorMatrix type="matrix" values="0 0 0 0 0 0 0 0 0 0 0 0 0 0 0 0 0 0 0.25 0"/>
<feBlend mode="normal" in2="BackgroundImageFix" result="effect1_dropShadow_1_53"/>
<feBlend mode="normal" in="SourceGraphic" in2="effect1_dropShadow_1_53" result="shape"/>
</filter>
<filter id="filter7_d_1_53" x="-1.33163" y="-7.58135" width="140.986" height="149.688" filterUnits="userSpaceOnUse" color-interpolation-filters="sRGB">
<feFlood flood-opacity="0" result="BackgroundImageFix"/>
<feColorMatrix in="SourceAlpha" type="matrix" values="0 0 0 0 0 0 0 0 0 0 0 0 0 0 0 0 0 0 127 0" result="hardAlpha"/>
<feOffset dy="4"/>
<feGaussianBlur stdDeviation="2"/>
<feComposite in2="hardAlpha" operator="out"/>
<feColorMatrix type="matrix" values="0 0 0 0 0 0 0 0 0 0 0 0 0 0 0 0 0 0 0.25 0"/>
<feBlend mode="normal" in2="BackgroundImageFix" result="effect1_dropShadow_1_53"/>
<feBlend mode="normal" in="SourceGraphic" in2="effect1_dropShadow_1_53" result="shape"/>
</filter>
<clipPath id="clip0_1_53">
<rect width="128" height="128" fill="white" transform="translate(4)"/>
</clipPath>
</defs>
</svg>
